#N canvas 195 441 1507 646 12;
#X obj 27 20 r num1;
#X msg 29 92 \$1 1000;
#X obj 29 118 osc~;
#X obj 28 266 dac~;
#X obj 95 20 r num2;
#X msg 97 92 \$1 1000;
#X obj 97 118 osc~;
#X obj 163 20 r num3;
#X msg 165 92 \$1 1000;
#X obj 165 118 osc~;
#X obj 231 20 r num4;
#X msg 233 92 \$1 1000;
#X obj 233 118 osc~;
#X obj 300 20 r num5;
#X msg 302 92 \$1 1000;
#X obj 302 118 osc~;
#X obj 368 20 r num6;
#X msg 370 92 \$1 1000;
#X obj 370 118 osc~;
#X obj 436 20 r num7;
#X msg 438 92 \$1 1000;
#X obj 438 118 osc~;
#X obj 504 20 r num8;
#X msg 506 92 \$1 1000;
#X obj 506 118 osc~;
#X obj 572 20 r num9;
#X msg 574 92 \$1 1000;
#X obj 574 118 osc~;
#X obj 640 20 r num10;
#X msg 642 92 \$1 1000;
#X obj 642 118 osc~;
#X obj 708 20 r num11;
#X msg 710 92 \$1 1000;
#X obj 710 118 osc~;
#X obj 776 20 r num12;
#X msg 778 92 \$1 1000;
#X obj 778 118 osc~;
#X obj 845 20 r num13;
#X msg 847 92 \$1 1000;
#X obj 847 118 osc~;
#X obj 913 20 r num14;
#X msg 915 92 \$1 1000;
#X obj 915 118 osc~;
#X obj 981 20 r num15;
#X msg 983 92 \$1 1000;
#X obj 983 118 osc~;
#X obj 1049 21 r num16;
#X msg 1051 92 \$1 1000;
#X obj 1051 118 osc~;
#X obj 97 144 +~;
#X obj 165 144 +~;
#X obj 233 144 +~;
#X obj 302 144 +~;
#X obj 370 191 +~;
#X obj 438 144 +~;
#X obj 506 144 +~;
#X obj 574 144 +~;
#X obj 710 144 +~;
#X obj 778 144 +~;
#X obj 847 144 +~;
#X obj 915 144 +~;
#X obj 983 144 +~;
#X obj 1051 144 +~;
#X obj 29 144 +~;
#X msg 1120 92 \$1 1000;
#X obj 1120 118 osc~;
#X msg 1188 92 \$1 1000;
#X obj 1188 118 osc~;
#X msg 1256 92 \$1 1000;
#X obj 1256 118 osc~;
#X msg 1325 92 \$1 1000;
#X obj 1325 118 osc~;
#X msg 1393 92 \$1 1000;
#X obj 1393 118 osc~;
#X msg 1461 92 \$1 1000;
#X obj 1461 118 osc~;
#X msg 1529 92 \$1 1000;
#X obj 1529 118 osc~;
#X msg 1597 92 \$1 1000;
#X obj 1597 118 osc~;
#X msg 1665 92 \$1 1000;
#X obj 1665 118 osc~;
#X msg 1733 92 \$1 1000;
#X obj 1733 118 osc~;
#X msg 1801 92 \$1 1000;
#X obj 1801 118 osc~;
#X msg 1870 92 \$1 1000;
#X obj 1870 118 osc~;
#X msg 1938 92 \$1 1000;
#X obj 1938 118 osc~;
#X msg 2006 92 \$1 1000;
#X obj 2006 118 osc~;
#X msg 2074 92 \$1 1000;
#X obj 2074 118 osc~;
#X obj 1120 144 +~;
#X obj 1188 144 +~;
#X obj 1256 144 +~;
#X obj 1325 144 +~;
#X obj 1393 144 +~;
#X obj 1461 144 +~;
#X obj 1529 144 +~;
#X obj 1597 144 +~;
#X obj 1665 144 +~;
#X obj 1733 144 +~;
#X obj 1801 144 +~;
#X obj 1870 144 +~;
#X obj 1938 144 +~;
#X obj 2006 144 +~;
#X obj 2074 144 +~;
#X obj 1118 20 r num17;
#X obj 1186 20 r num18;
#X obj 1254 20 r num19;
#X obj 1323 20 r num20;
#X obj 1391 20 r num21;
#X obj 1459 20 r num22;
#X obj 1527 20 r num23;
#X obj 1595 20 r num24;
#X obj 1663 20 r num25;
#X obj 1731 20 r num26;
#X obj 1799 20 r num27;
#X obj 1868 20 r num28;
#X obj 1936 20 r num29;
#X obj 2004 20 r num30;
#X obj 2072 20 r num31;
#X obj 29 170 *~ 1;
#X obj 368 46 * 2;
#X obj 640 46 * 3;
#X obj 845 46 * 1.5;
#X obj 1323 46 * 2;
#X obj 370 144 *~ 0.5;
#X obj 642 196 +~;
#X obj 642 149 *~ 0.5;
#X connect 0 0 1 0;
#X connect 1 0 2 0;
#X connect 2 0 63 0;
#X connect 4 0 5 0;
#X connect 5 0 6 0;
#X connect 6 0 49 0;
#X connect 7 0 8 0;
#X connect 8 0 9 0;
#X connect 9 0 50 0;
#X connect 10 0 11 0;
#X connect 11 0 12 0;
#X connect 12 0 51 0;
#X connect 13 0 14 0;
#X connect 14 0 15 0;
#X connect 15 0 52 0;
#X connect 16 0 125 0;
#X connect 17 0 18 0;
#X connect 18 0 129 0;
#X connect 19 0 20 0;
#X connect 20 0 21 0;
#X connect 21 0 54 0;
#X connect 22 0 23 0;
#X connect 23 0 24 0;
#X connect 24 0 55 0;
#X connect 25 0 26 0;
#X connect 26 0 27 0;
#X connect 27 0 56 0;
#X connect 28 0 126 0;
#X connect 29 0 30 0;
#X connect 30 0 131 0;
#X connect 31 0 32 0;
#X connect 32 0 33 0;
#X connect 33 0 57 0;
#X connect 34 0 35 0;
#X connect 35 0 36 0;
#X connect 36 0 58 0;
#X connect 37 0 127 0;
#X connect 38 0 39 0;
#X connect 39 0 59 0;
#X connect 40 0 41 0;
#X connect 41 0 42 0;
#X connect 42 0 60 0;
#X connect 43 0 44 0;
#X connect 44 0 45 0;
#X connect 45 0 61 0;
#X connect 46 0 47 0;
#X connect 47 0 48 0;
#X connect 48 0 62 0;
#X connect 49 0 63 1;
#X connect 50 0 49 1;
#X connect 51 0 50 1;
#X connect 52 0 51 1;
#X connect 53 0 52 1;
#X connect 54 0 53 1;
#X connect 55 0 54 1;
#X connect 56 0 55 1;
#X connect 57 0 130 1;
#X connect 58 0 57 1;
#X connect 59 0 58 1;
#X connect 60 0 59 1;
#X connect 61 0 60 1;
#X connect 62 0 61 1;
#X connect 63 0 124 0;
#X connect 64 0 65 0;
#X connect 65 0 94 0;
#X connect 66 0 67 0;
#X connect 67 0 95 0;
#X connect 68 0 69 0;
#X connect 69 0 96 0;
#X connect 70 0 71 0;
#X connect 71 0 97 0;
#X connect 72 0 73 0;
#X connect 73 0 98 0;
#X connect 74 0 75 0;
#X connect 75 0 99 0;
#X connect 76 0 77 0;
#X connect 77 0 100 0;
#X connect 78 0 79 0;
#X connect 79 0 101 0;
#X connect 80 0 81 0;
#X connect 81 0 102 0;
#X connect 82 0 83 0;
#X connect 83 0 103 0;
#X connect 84 0 85 0;
#X connect 85 0 104 0;
#X connect 86 0 87 0;
#X connect 87 0 105 0;
#X connect 88 0 89 0;
#X connect 89 0 106 0;
#X connect 90 0 91 0;
#X connect 91 0 107 0;
#X connect 92 0 93 0;
#X connect 93 0 108 0;
#X connect 94 0 62 1;
#X connect 95 0 94 1;
#X connect 96 0 95 1;
#X connect 97 0 96 1;
#X connect 98 0 97 1;
#X connect 99 0 98 1;
#X connect 100 0 99 1;
#X connect 101 0 100 1;
#X connect 102 0 101 1;
#X connect 103 0 102 1;
#X connect 104 0 103 1;
#X connect 105 0 104 1;
#X connect 106 0 105 1;
#X connect 107 0 106 1;
#X connect 108 0 107 1;
#X connect 109 0 64 0;
#X connect 110 0 66 0;
#X connect 111 0 68 0;
#X connect 112 0 128 0;
#X connect 113 0 72 0;
#X connect 114 0 74 0;
#X connect 115 0 76 0;
#X connect 116 0 78 0;
#X connect 117 0 80 0;
#X connect 118 0 82 0;
#X connect 119 0 84 0;
#X connect 120 0 86 0;
#X connect 121 0 88 0;
#X connect 122 0 90 0;
#X connect 123 0 92 0;
#X connect 124 0 3 0;
#X connect 124 0 3 1;
#X connect 125 0 17 0;
#X connect 126 0 29 0;
#X connect 127 0 38 0;
#X connect 128 0 70 0;
#X connect 129 0 53 0;
#X connect 130 0 56 1;
#X connect 131 0 130 0;
