#N canvas -9 -9 1920 1096 12;
#X obj 27 20 r num1;
#X msg 27 46 \$1 1000;
#X obj 27 72 osc~;
#X obj 27 98 dac~;
#X obj 95 20 r num2;
#X msg 95 46 \$1 1000;
#X obj 95 72 osc~;
#X obj 95 98 dac~;
#X obj 163 20 r num3;
#X msg 163 46 \$1 1000;
#X obj 163 72 osc~;
#X obj 163 98 dac~;
#X obj 231 20 r num4;
#X msg 231 46 \$1 1000;
#X obj 231 72 osc~;
#X obj 231 98 dac~;
#X obj 300 20 r num5;
#X msg 300 46 \$1 1000;
#X obj 300 72 osc~;
#X obj 300 98 dac~;
#X obj 368 20 r num6;
#X msg 368 46 \$1 1000;
#X obj 368 72 osc~;
#X obj 368 98 dac~;
#X obj 436 20 r num7;
#X msg 436 46 \$1 1000;
#X obj 436 72 osc~;
#X obj 436 98 dac~;
#X obj 504 20 r num8;
#X msg 504 46 \$1 1000;
#X obj 504 72 osc~;
#X obj 504 98 dac~;
#X obj 572 20 r num9;
#X msg 572 46 \$1 1000;
#X obj 572 72 osc~;
#X obj 572 98 dac~;
#X obj 640 20 r num10;
#X msg 640 46 \$1 1000;
#X obj 640 72 osc~;
#X obj 640 98 dac~;
#X obj 708 20 r num11;
#X msg 708 46 \$1 1000;
#X obj 708 72 osc~;
#X obj 708 98 dac~;
#X obj 776 20 r num12;
#X msg 776 46 \$1 1000;
#X obj 776 72 osc~;
#X obj 776 98 dac~;
#X obj 845 20 r num13;
#X msg 845 46 \$1 1000;
#X obj 845 72 osc~;
#X obj 845 98 dac~;
#X obj 913 20 r num14;
#X msg 913 46 \$1 1000;
#X obj 913 72 osc~;
#X obj 913 98 dac~;
#X obj 981 20 r num15;
#X msg 981 46 \$1 1000;
#X obj 981 72 osc~;
#X obj 981 98 dac~;
#X obj 1049 20 r num16;
#X msg 1049 46 \$1 1000;
#X obj 1049 72 osc~;
#X obj 1049 98 dac~;
#X obj 27 134 r num17;
#X msg 27 160 \$1 1000;
#X obj 27 186 osc~;
#X obj 27 212 dac~;
#X obj 95 134 r num18;
#X msg 95 160 \$1 1000;
#X obj 95 186 osc~;
#X obj 95 212 dac~;
#X obj 163 134 r num19;
#X msg 163 160 \$1 1000;
#X obj 163 186 osc~;
#X obj 163 212 dac~;
#X obj 231 134 r num20;
#X msg 231 160 \$1 1000;
#X obj 231 186 osc~;
#X obj 231 212 dac~;
#X obj 300 134 r num21;
#X msg 300 160 \$1 1000;
#X obj 300 186 osc~;
#X obj 300 212 dac~;
#X obj 368 134 r num22;
#X msg 368 160 \$1 1000;
#X obj 368 186 osc~;
#X obj 368 212 dac~;
#X obj 436 134 r num23;
#X msg 436 160 \$1 1000;
#X obj 436 186 osc~;
#X obj 436 212 dac~;
#X obj 504 134 r num24;
#X msg 504 160 \$1 1000;
#X obj 504 186 osc~;
#X obj 504 212 dac~;
#X obj 572 134 r num25;
#X msg 572 160 \$1 1000;
#X obj 572 186 osc~;
#X obj 572 212 dac~;
#X obj 640 134 r num26;
#X msg 640 160 \$1 1000;
#X obj 640 186 osc~;
#X obj 640 212 dac~;
#X obj 708 134 r num27;
#X msg 708 160 \$1 1000;
#X obj 708 186 osc~;
#X obj 708 212 dac~;
#X obj 776 134 r num28;
#X msg 776 160 \$1 1000;
#X obj 776 186 osc~;
#X obj 776 212 dac~;
#X obj 845 134 r num29;
#X msg 845 160 \$1 1000;
#X obj 845 186 osc~;
#X obj 845 212 dac~;
#X obj 913 134 r num30;
#X msg 913 160 \$1 1000;
#X obj 913 186 osc~;
#X obj 913 212 dac~;
#X obj 981 134 r num31;
#X msg 981 160 \$1 1000;
#X obj 981 186 osc~;
#X obj 981 212 dac~;
#X obj 1049 134 r num32;
#X msg 1049 160 \$1 1000;
#X obj 1049 186 osc~;
#X obj 1049 212 dac~;
#X obj 26 247 r num33;
#X msg 26 273 \$1 1000;
#X obj 26 299 osc~;
#X obj 26 325 dac~;
#X obj 94 247 r num34;
#X msg 94 273 \$1 1000;
#X obj 94 299 osc~;
#X obj 94 325 dac~;
#X obj 162 247 r num35;
#X msg 162 273 \$1 1000;
#X obj 162 299 osc~;
#X obj 162 325 dac~;
#X obj 230 247 r num36;
#X msg 230 273 \$1 1000;
#X obj 230 299 osc~;
#X obj 230 325 dac~;
#X obj 299 247 r num37;
#X msg 299 273 \$1 1000;
#X obj 299 299 osc~;
#X obj 299 325 dac~;
#X obj 367 247 r num38;
#X msg 367 273 \$1 1000;
#X obj 367 299 osc~;
#X obj 367 325 dac~;
#X obj 435 247 r num39;
#X msg 435 273 \$1 1000;
#X obj 435 299 osc~;
#X obj 435 325 dac~;
#X obj 503 247 r num40;
#X msg 503 273 \$1 1000;
#X obj 503 299 osc~;
#X obj 503 325 dac~;
#X obj 571 247 r num41;
#X msg 571 273 \$1 1000;
#X obj 571 299 osc~;
#X obj 571 325 dac~;
#X obj 639 247 r num42;
#X msg 639 273 \$1 1000;
#X obj 639 299 osc~;
#X obj 639 325 dac~;
#X obj 707 247 r num43;
#X msg 707 273 \$1 1000;
#X obj 707 299 osc~;
#X obj 707 325 dac~;
#X obj 775 247 r num44;
#X msg 775 273 \$1 1000;
#X obj 775 299 osc~;
#X obj 775 325 dac~;
#X obj 844 247 r num45;
#X msg 844 273 \$1 1000;
#X obj 844 299 osc~;
#X obj 844 325 dac~;
#X obj 912 247 r num46;
#X msg 912 273 \$1 1000;
#X obj 912 299 osc~;
#X obj 912 325 dac~;
#X obj 980 247 r num47;
#X msg 980 273 \$1 1000;
#X obj 980 299 osc~;
#X obj 980 325 dac~;
#X obj 1048 247 r num48;
#X msg 1048 273 \$1 1000;
#X obj 1048 299 osc~;
#X obj 1048 325 dac~;
#X obj 26 361 r num49;
#X msg 26 387 \$1 1000;
#X obj 26 413 osc~;
#X obj 26 439 dac~;
#X obj 94 361 r num50;
#X msg 94 387 \$1 1000;
#X obj 94 413 osc~;
#X obj 94 439 dac~;
#X obj 162 361 r num51;
#X msg 162 387 \$1 1000;
#X obj 162 413 osc~;
#X obj 162 439 dac~;
#X obj 230 361 r num52;
#X msg 230 387 \$1 1000;
#X obj 230 413 osc~;
#X obj 230 439 dac~;
#X obj 299 361 r num53;
#X msg 299 387 \$1 1000;
#X obj 299 413 osc~;
#X obj 299 439 dac~;
#X obj 367 361 r num54;
#X msg 367 387 \$1 1000;
#X obj 367 413 osc~;
#X obj 367 439 dac~;
#X obj 435 361 r num55;
#X msg 435 387 \$1 1000;
#X obj 435 413 osc~;
#X obj 435 439 dac~;
#X obj 503 361 r num56;
#X msg 503 387 \$1 1000;
#X obj 503 413 osc~;
#X obj 503 439 dac~;
#X obj 571 361 r num57;
#X msg 571 387 \$1 1000;
#X obj 571 413 osc~;
#X obj 571 439 dac~;
#X obj 639 361 r num58;
#X msg 639 387 \$1 1000;
#X obj 639 413 osc~;
#X obj 639 439 dac~;
#X obj 707 361 r num59;
#X msg 707 387 \$1 1000;
#X obj 707 413 osc~;
#X obj 707 439 dac~;
#X obj 775 361 r num60;
#X msg 775 387 \$1 1000;
#X obj 775 413 osc~;
#X obj 775 439 dac~;
#X obj 844 361 r num61;
#X msg 844 387 \$1 1000;
#X obj 844 413 osc~;
#X obj 844 439 dac~;
#X obj 912 361 r num62;
#X msg 912 387 \$1 1000;
#X obj 912 413 osc~;
#X obj 912 439 dac~;
#X obj 980 361 r num63;
#X msg 980 387 \$1 1000;
#X obj 980 413 osc~;
#X obj 980 439 dac~;
#X obj 1048 361 r num64;
#X msg 1048 387 \$1 1000;
#X obj 1048 413 osc~;
#X obj 1048 439 dac~;
#X obj 26 472 r num65;
#X msg 26 498 \$1 1000;
#X obj 26 524 osc~;
#X obj 26 550 dac~;
#X obj 94 472 r num66;
#X msg 94 498 \$1 1000;
#X obj 94 524 osc~;
#X obj 94 550 dac~;
#X obj 162 472 r num67;
#X msg 162 498 \$1 1000;
#X obj 162 524 osc~;
#X obj 162 550 dac~;
#X obj 230 472 r num68;
#X msg 230 498 \$1 1000;
#X obj 230 524 osc~;
#X obj 230 550 dac~;
#X obj 299 472 r num69;
#X msg 299 498 \$1 1000;
#X obj 299 524 osc~;
#X obj 299 550 dac~;
#X obj 367 472 r num70;
#X msg 367 498 \$1 1000;
#X obj 367 524 osc~;
#X obj 367 550 dac~;
#X obj 435 472 r num71;
#X msg 435 498 \$1 1000;
#X obj 435 524 osc~;
#X obj 435 550 dac~;
#X obj 503 472 r num72;
#X msg 503 498 \$1 1000;
#X obj 503 524 osc~;
#X obj 503 550 dac~;
#X obj 571 472 r num73;
#X msg 571 498 \$1 1000;
#X obj 571 524 osc~;
#X obj 571 550 dac~;
#X obj 639 472 r num74;
#X msg 639 498 \$1 1000;
#X obj 639 524 osc~;
#X obj 639 550 dac~;
#X obj 707 472 r num75;
#X msg 707 498 \$1 1000;
#X obj 707 524 osc~;
#X obj 707 550 dac~;
#X obj 775 472 r num76;
#X msg 775 498 \$1 1000;
#X obj 775 524 osc~;
#X obj 775 550 dac~;
#X obj 844 472 r num77;
#X msg 844 498 \$1 1000;
#X obj 844 524 osc~;
#X obj 844 550 dac~;
#X obj 912 472 r num78;
#X msg 912 498 \$1 1000;
#X obj 912 524 osc~;
#X obj 912 550 dac~;
#X obj 980 472 r num79;
#X msg 980 498 \$1 1000;
#X obj 980 524 osc~;
#X obj 980 550 dac~;
#X obj 1048 472 r num80;
#X msg 1048 498 \$1 1000;
#X obj 1048 524 osc~;
#X obj 1048 550 dac~;
#X obj 26 586 r num81;
#X msg 26 612 \$1 1000;
#X obj 26 638 osc~;
#X obj 26 664 dac~;
#X obj 94 586 r num82;
#X msg 94 612 \$1 1000;
#X obj 94 638 osc~;
#X obj 94 664 dac~;
#X obj 162 586 r num83;
#X msg 162 612 \$1 1000;
#X obj 162 638 osc~;
#X obj 162 664 dac~;
#X obj 230 586 r num84;
#X msg 230 612 \$1 1000;
#X obj 230 638 osc~;
#X obj 230 664 dac~;
#X obj 299 586 r num85;
#X msg 299 612 \$1 1000;
#X obj 299 638 osc~;
#X obj 299 664 dac~;
#X obj 367 586 r num86;
#X msg 367 612 \$1 1000;
#X obj 367 638 osc~;
#X obj 367 664 dac~;
#X obj 435 586 r num87;
#X msg 435 612 \$1 1000;
#X obj 435 638 osc~;
#X obj 435 664 dac~;
#X obj 503 586 r num88;
#X msg 503 612 \$1 1000;
#X obj 503 638 osc~;
#X obj 503 664 dac~;
#X obj 571 586 r num89;
#X msg 571 612 \$1 1000;
#X obj 571 638 osc~;
#X obj 571 664 dac~;
#X obj 639 586 r num90;
#X msg 639 612 \$1 1000;
#X obj 639 638 osc~;
#X obj 639 664 dac~;
#X obj 707 586 r num91;
#X msg 707 612 \$1 1000;
#X obj 707 638 osc~;
#X obj 707 664 dac~;
#X obj 775 586 r num92;
#X msg 775 612 \$1 1000;
#X obj 775 638 osc~;
#X obj 775 664 dac~;
#X obj 844 586 r num93;
#X msg 844 612 \$1 1000;
#X obj 844 638 osc~;
#X obj 844 664 dac~;
#X obj 912 586 r num94;
#X msg 912 612 \$1 1000;
#X obj 912 638 osc~;
#X obj 912 664 dac~;
#X obj 980 586 r num95;
#X msg 980 612 \$1 1000;
#X obj 980 638 osc~;
#X obj 980 664 dac~;
#X obj 1048 586 r num96;
#X msg 1048 612 \$1 1000;
#X obj 1048 638 osc~;
#X obj 1048 664 dac~;
#X obj 25 699 r num97;
#X msg 25 725 \$1 1000;
#X obj 25 751 osc~;
#X obj 25 777 dac~;
#X obj 93 699 r num98;
#X msg 93 725 \$1 1000;
#X obj 93 751 osc~;
#X obj 93 777 dac~;
#X obj 161 699 r num99;
#X msg 161 725 \$1 1000;
#X obj 161 751 osc~;
#X obj 161 777 dac~;
#X obj 229 699 r num100;
#X msg 229 725 \$1 1000;
#X obj 229 751 osc~;
#X obj 229 777 dac~;
#X obj 298 699 r num101;
#X msg 298 725 \$1 1000;
#X obj 298 751 osc~;
#X obj 298 777 dac~;
#X obj 366 699 r num102;
#X msg 366 725 \$1 1000;
#X obj 366 751 osc~;
#X obj 366 777 dac~;
#X obj 434 699 r num103;
#X msg 434 725 \$1 1000;
#X obj 434 751 osc~;
#X obj 434 777 dac~;
#X obj 502 699 r num104;
#X msg 502 725 \$1 1000;
#X obj 502 751 osc~;
#X obj 502 777 dac~;
#X obj 570 699 r num105;
#X msg 570 725 \$1 1000;
#X obj 570 751 osc~;
#X obj 570 777 dac~;
#X obj 638 699 r num106;
#X msg 638 725 \$1 1000;
#X obj 638 751 osc~;
#X obj 638 777 dac~;
#X obj 706 699 r num107;
#X msg 706 725 \$1 1000;
#X obj 706 751 osc~;
#X obj 706 777 dac~;
#X obj 774 699 r num108;
#X msg 774 725 \$1 1000;
#X obj 774 751 osc~;
#X obj 774 777 dac~;
#X obj 843 699 r num109;
#X msg 843 725 \$1 1000;
#X obj 843 751 osc~;
#X obj 843 777 dac~;
#X obj 911 699 r num110;
#X msg 911 725 \$1 1000;
#X obj 911 751 osc~;
#X obj 911 777 dac~;
#X obj 979 699 r num111;
#X msg 979 725 \$1 1000;
#X obj 979 751 osc~;
#X obj 979 777 dac~;
#X obj 1047 699 r num112;
#X msg 1047 725 \$1 1000;
#X obj 1047 751 osc~;
#X obj 1047 777 dac~;
#X obj 25 813 r num113;
#X msg 25 839 \$1 1000;
#X obj 25 865 osc~;
#X obj 25 891 dac~;
#X obj 93 813 r num114;
#X msg 93 839 \$1 1000;
#X obj 93 865 osc~;
#X obj 93 891 dac~;
#X obj 161 813 r num115;
#X msg 161 839 \$1 1000;
#X obj 161 865 osc~;
#X obj 161 891 dac~;
#X obj 229 813 r num116;
#X msg 229 839 \$1 1000;
#X obj 229 865 osc~;
#X obj 229 891 dac~;
#X obj 298 813 r num117;
#X msg 298 839 \$1 1000;
#X obj 298 865 osc~;
#X obj 298 891 dac~;
#X obj 366 813 r num118;
#X msg 366 839 \$1 1000;
#X obj 366 865 osc~;
#X obj 366 891 dac~;
#X obj 434 813 r num119;
#X msg 434 839 \$1 1000;
#X obj 434 865 osc~;
#X obj 434 891 dac~;
#X obj 502 813 r num120;
#X msg 502 839 \$1 1000;
#X obj 502 865 osc~;
#X obj 502 891 dac~;
#X obj 570 813 r num121;
#X msg 570 839 \$1 1000;
#X obj 570 865 osc~;
#X obj 570 891 dac~;
#X obj 638 813 r num122;
#X msg 638 839 \$1 1000;
#X obj 638 865 osc~;
#X obj 638 891 dac~;
#X obj 706 813 r num123;
#X msg 706 839 \$1 1000;
#X obj 706 865 osc~;
#X obj 706 891 dac~;
#X obj 774 813 r num124;
#X msg 774 839 \$1 1000;
#X obj 774 865 osc~;
#X obj 774 891 dac~;
#X obj 843 813 r num125;
#X msg 843 839 \$1 1000;
#X obj 843 865 osc~;
#X obj 843 891 dac~;
#X obj 911 813 r num126;
#X msg 911 839 \$1 1000;
#X obj 911 865 osc~;
#X obj 911 891 dac~;
#X obj 979 813 r num127;
#X msg 979 839 \$1 1000;
#X obj 979 865 osc~;
#X obj 979 891 dac~;
#X obj 1047 813 r num128;
#X msg 1047 839 \$1 1000;
#X obj 1047 865 osc~;
#X obj 1047 891 dac~;
#X obj 1117 20 r num129;
#X msg 1117 46 \$1 1000;
#X obj 1117 72 osc~;
#X obj 1117 98 dac~;
#X obj 1185 20 r num130;
#X msg 1185 46 \$1 1000;
#X obj 1185 72 osc~;
#X obj 1185 98 dac~;
#X obj 1253 20 r num131;
#X msg 1253 46 \$1 1000;
#X obj 1253 72 osc~;
#X obj 1253 98 dac~;
#X obj 1321 20 r num132;
#X msg 1321 46 \$1 1000;
#X obj 1321 72 osc~;
#X obj 1321 98 dac~;
#X obj 1390 20 r num133;
#X msg 1390 46 \$1 1000;
#X obj 1390 72 osc~;
#X obj 1390 98 dac~;
#X obj 1458 20 r num134;
#X msg 1458 46 \$1 1000;
#X obj 1458 72 osc~;
#X obj 1458 98 dac~;
#X obj 1526 20 r num135;
#X msg 1526 46 \$1 1000;
#X obj 1526 72 osc~;
#X obj 1526 98 dac~;
#X obj 1594 20 r num136;
#X msg 1594 46 \$1 1000;
#X obj 1594 72 osc~;
#X obj 1594 98 dac~;
#X obj 1662 20 r num137;
#X msg 1662 46 \$1 1000;
#X obj 1662 72 osc~;
#X obj 1662 98 dac~;
#X obj 1730 20 r num138;
#X msg 1730 46 \$1 1000;
#X obj 1730 72 osc~;
#X obj 1730 98 dac~;
#X obj 1798 20 r num139;
#X msg 1798 46 \$1 1000;
#X obj 1798 72 osc~;
#X obj 1798 98 dac~;
#X obj 1866 20 r num140;
#X msg 1866 46 \$1 1000;
#X obj 1866 72 osc~;
#X obj 1866 98 dac~;
#X obj 1935 20 r num141;
#X msg 1935 46 \$1 1000;
#X obj 1935 72 osc~;
#X obj 1935 98 dac~;
#X obj 2003 20 r num142;
#X msg 2003 46 \$1 1000;
#X obj 2003 72 osc~;
#X obj 2003 98 dac~;
#X obj 2071 20 r num143;
#X msg 2071 46 \$1 1000;
#X obj 2071 72 osc~;
#X obj 2071 98 dac~;
#X obj 2139 20 r num144;
#X msg 2139 46 \$1 1000;
#X obj 2139 72 osc~;
#X obj 2139 98 dac~;
#X obj 1117 134 r num145;
#X msg 1117 160 \$1 1000;
#X obj 1117 186 osc~;
#X obj 1117 212 dac~;
#X obj 1185 134 r num146;
#X msg 1185 160 \$1 1000;
#X obj 1185 186 osc~;
#X obj 1185 212 dac~;
#X obj 1253 134 r num147;
#X msg 1253 160 \$1 1000;
#X obj 1253 186 osc~;
#X obj 1253 212 dac~;
#X obj 1321 134 r num148;
#X msg 1321 160 \$1 1000;
#X obj 1321 186 osc~;
#X obj 1321 212 dac~;
#X obj 1390 134 r num149;
#X msg 1390 160 \$1 1000;
#X obj 1390 186 osc~;
#X obj 1390 212 dac~;
#X obj 1458 134 r num150;
#X msg 1458 160 \$1 1000;
#X obj 1458 186 osc~;
#X obj 1458 212 dac~;
#X obj 1526 134 r num151;
#X msg 1526 160 \$1 1000;
#X obj 1526 186 osc~;
#X obj 1526 212 dac~;
#X obj 1594 134 r num152;
#X msg 1594 160 \$1 1000;
#X obj 1594 186 osc~;
#X obj 1594 212 dac~;
#X obj 1662 134 r num153;
#X msg 1662 160 \$1 1000;
#X obj 1662 186 osc~;
#X obj 1662 212 dac~;
#X obj 1730 134 r num154;
#X msg 1730 160 \$1 1000;
#X obj 1730 186 osc~;
#X obj 1730 212 dac~;
#X obj 1798 134 r num155;
#X msg 1798 160 \$1 1000;
#X obj 1798 186 osc~;
#X obj 1798 212 dac~;
#X obj 1866 134 r num156;
#X msg 1866 160 \$1 1000;
#X obj 1866 186 osc~;
#X obj 1866 212 dac~;
#X obj 1935 134 r num157;
#X msg 1935 160 \$1 1000;
#X obj 1935 186 osc~;
#X obj 1935 212 dac~;
#X obj 2003 134 r num158;
#X msg 2003 160 \$1 1000;
#X obj 2003 186 osc~;
#X obj 2003 212 dac~;
#X obj 2071 134 r num159;
#X msg 2071 160 \$1 1000;
#X obj 2071 186 osc~;
#X obj 2071 212 dac~;
#X obj 2139 134 r num160;
#X msg 2139 160 \$1 1000;
#X obj 2139 186 osc~;
#X obj 2139 212 dac~;
#X obj 1116 247 r num161;
#X msg 1116 273 \$1 1000;
#X obj 1116 299 osc~;
#X obj 1116 325 dac~;
#X obj 1184 247 r num162;
#X msg 1184 273 \$1 1000;
#X obj 1184 299 osc~;
#X obj 1184 325 dac~;
#X obj 1252 247 r num163;
#X msg 1252 273 \$1 1000;
#X obj 1252 299 osc~;
#X obj 1252 325 dac~;
#X obj 1320 247 r num164;
#X msg 1320 273 \$1 1000;
#X obj 1320 299 osc~;
#X obj 1320 325 dac~;
#X obj 1389 247 r num165;
#X msg 1389 273 \$1 1000;
#X obj 1389 299 osc~;
#X obj 1389 325 dac~;
#X obj 1457 247 r num166;
#X msg 1457 273 \$1 1000;
#X obj 1457 299 osc~;
#X obj 1457 325 dac~;
#X obj 1525 247 r num167;
#X msg 1525 273 \$1 1000;
#X obj 1525 299 osc~;
#X obj 1525 325 dac~;
#X obj 1593 247 r num168;
#X msg 1593 273 \$1 1000;
#X obj 1593 299 osc~;
#X obj 1593 325 dac~;
#X obj 1661 247 r num169;
#X msg 1661 273 \$1 1000;
#X obj 1661 299 osc~;
#X obj 1661 325 dac~;
#X obj 1729 247 r num170;
#X msg 1729 273 \$1 1000;
#X obj 1729 299 osc~;
#X obj 1729 325 dac~;
#X obj 1797 247 r num171;
#X msg 1797 273 \$1 1000;
#X obj 1797 299 osc~;
#X obj 1797 325 dac~;
#X obj 1865 247 r num172;
#X msg 1865 273 \$1 1000;
#X obj 1865 299 osc~;
#X obj 1865 325 dac~;
#X obj 1934 247 r num173;
#X msg 1934 273 \$1 1000;
#X obj 1934 299 osc~;
#X obj 1934 325 dac~;
#X obj 2002 247 r num174;
#X msg 2002 273 \$1 1000;
#X obj 2002 299 osc~;
#X obj 2002 325 dac~;
#X obj 2070 247 r num175;
#X msg 2070 273 \$1 1000;
#X obj 2070 299 osc~;
#X obj 2070 325 dac~;
#X obj 2138 247 r num176;
#X msg 2138 273 \$1 1000;
#X obj 2138 299 osc~;
#X obj 2138 325 dac~;
#X obj 1116 361 r num177;
#X msg 1116 387 \$1 1000;
#X obj 1116 413 osc~;
#X obj 1116 439 dac~;
#X obj 1184 361 r num178;
#X msg 1184 387 \$1 1000;
#X obj 1184 413 osc~;
#X obj 1184 439 dac~;
#X obj 1252 361 r num179;
#X msg 1252 387 \$1 1000;
#X obj 1252 413 osc~;
#X obj 1252 439 dac~;
#X obj 1320 361 r num180;
#X msg 1320 387 \$1 1000;
#X obj 1320 413 osc~;
#X obj 1320 439 dac~;
#X obj 1389 361 r num181;
#X msg 1389 387 \$1 1000;
#X obj 1389 413 osc~;
#X obj 1389 439 dac~;
#X obj 1457 361 r num182;
#X msg 1457 387 \$1 1000;
#X obj 1457 413 osc~;
#X obj 1457 439 dac~;
#X obj 1525 361 r num183;
#X msg 1525 387 \$1 1000;
#X obj 1525 413 osc~;
#X obj 1525 439 dac~;
#X obj 1593 361 r num184;
#X msg 1593 387 \$1 1000;
#X obj 1593 413 osc~;
#X obj 1593 439 dac~;
#X obj 1661 361 r num185;
#X msg 1661 387 \$1 1000;
#X obj 1661 413 osc~;
#X obj 1661 439 dac~;
#X obj 1729 361 r num186;
#X msg 1729 387 \$1 1000;
#X obj 1729 413 osc~;
#X obj 1729 439 dac~;
#X obj 1797 361 r num187;
#X msg 1797 387 \$1 1000;
#X obj 1797 413 osc~;
#X obj 1797 439 dac~;
#X obj 1865 361 r num188;
#X msg 1865 387 \$1 1000;
#X obj 1865 413 osc~;
#X obj 1865 439 dac~;
#X obj 1934 361 r num189;
#X msg 1934 387 \$1 1000;
#X obj 1934 413 osc~;
#X obj 1934 439 dac~;
#X obj 2002 361 r num190;
#X msg 2002 387 \$1 1000;
#X obj 2002 413 osc~;
#X obj 2002 439 dac~;
#X obj 2070 361 r num191;
#X msg 2070 387 \$1 1000;
#X obj 2070 413 osc~;
#X obj 2070 439 dac~;
#X obj 2138 361 r num192;
#X msg 2138 387 \$1 1000;
#X obj 2138 413 osc~;
#X obj 2138 439 dac~;
#X obj 1116 472 r num193;
#X msg 1116 498 \$1 1000;
#X obj 1116 524 osc~;
#X obj 1116 550 dac~;
#X obj 1184 472 r num194;
#X msg 1184 498 \$1 1000;
#X obj 1184 524 osc~;
#X obj 1184 550 dac~;
#X obj 1252 472 r num195;
#X msg 1252 498 \$1 1000;
#X obj 1252 524 osc~;
#X obj 1252 550 dac~;
#X obj 1320 472 r num196;
#X msg 1320 498 \$1 1000;
#X obj 1320 524 osc~;
#X obj 1320 550 dac~;
#X obj 1389 472 r num197;
#X msg 1389 498 \$1 1000;
#X obj 1389 524 osc~;
#X obj 1389 550 dac~;
#X obj 1457 472 r num198;
#X msg 1457 498 \$1 1000;
#X obj 1457 524 osc~;
#X obj 1457 550 dac~;
#X obj 1525 472 r num199;
#X msg 1525 498 \$1 1000;
#X obj 1525 524 osc~;
#X obj 1525 550 dac~;
#X obj 1593 472 r num200;
#X msg 1593 498 \$1 1000;
#X obj 1593 524 osc~;
#X obj 1593 550 dac~;
#X obj 1661 472 r num201;
#X msg 1661 498 \$1 1000;
#X obj 1661 524 osc~;
#X obj 1661 550 dac~;
#X obj 1729 472 r num202;
#X msg 1729 498 \$1 1000;
#X obj 1729 524 osc~;
#X obj 1729 550 dac~;
#X obj 1797 472 r num203;
#X msg 1797 498 \$1 1000;
#X obj 1797 524 osc~;
#X obj 1797 550 dac~;
#X obj 1865 472 r num204;
#X msg 1865 498 \$1 1000;
#X obj 1865 524 osc~;
#X obj 1865 550 dac~;
#X obj 1934 472 r num205;
#X msg 1934 498 \$1 1000;
#X obj 1934 524 osc~;
#X obj 1934 550 dac~;
#X obj 2002 472 r num206;
#X msg 2002 498 \$1 1000;
#X obj 2002 524 osc~;
#X obj 2002 550 dac~;
#X obj 2070 472 r num207;
#X msg 2070 498 \$1 1000;
#X obj 2070 524 osc~;
#X obj 2070 550 dac~;
#X obj 2138 472 r num208;
#X msg 2138 498 \$1 1000;
#X obj 2138 524 osc~;
#X obj 2138 550 dac~;
#X obj 1116 586 r num209;
#X msg 1116 612 \$1 1000;
#X obj 1116 638 osc~;
#X obj 1116 664 dac~;
#X obj 1184 586 r num210;
#X msg 1184 612 \$1 1000;
#X obj 1184 638 osc~;
#X obj 1184 664 dac~;
#X obj 1252 586 r num211;
#X msg 1252 612 \$1 1000;
#X obj 1252 638 osc~;
#X obj 1252 664 dac~;
#X obj 1320 586 r num212;
#X msg 1320 612 \$1 1000;
#X obj 1320 638 osc~;
#X obj 1320 664 dac~;
#X obj 1389 586 r num213;
#X msg 1389 612 \$1 1000;
#X obj 1389 638 osc~;
#X obj 1389 664 dac~;
#X obj 1457 586 r num214;
#X msg 1457 612 \$1 1000;
#X obj 1457 638 osc~;
#X obj 1457 664 dac~;
#X obj 1525 586 r num215;
#X msg 1525 612 \$1 1000;
#X obj 1525 638 osc~;
#X obj 1525 664 dac~;
#X obj 1593 586 r num216;
#X msg 1593 612 \$1 1000;
#X obj 1593 638 osc~;
#X obj 1593 664 dac~;
#X obj 1661 586 r num217;
#X msg 1661 612 \$1 1000;
#X obj 1661 638 osc~;
#X obj 1661 664 dac~;
#X obj 1729 586 r num218;
#X msg 1729 612 \$1 1000;
#X obj 1729 638 osc~;
#X obj 1729 664 dac~;
#X obj 1797 586 r num219;
#X msg 1797 612 \$1 1000;
#X obj 1797 638 osc~;
#X obj 1797 664 dac~;
#X obj 1865 586 r num220;
#X msg 1865 612 \$1 1000;
#X obj 1865 638 osc~;
#X obj 1865 664 dac~;
#X obj 1934 586 r num221;
#X msg 1934 612 \$1 1000;
#X obj 1934 638 osc~;
#X obj 1934 664 dac~;
#X obj 2002 586 r num222;
#X msg 2002 612 \$1 1000;
#X obj 2002 638 osc~;
#X obj 2002 664 dac~;
#X obj 2070 586 r num223;
#X msg 2070 612 \$1 1000;
#X obj 2070 638 osc~;
#X obj 2070 664 dac~;
#X obj 2138 586 r num224;
#X msg 2138 612 \$1 1000;
#X obj 2138 638 osc~;
#X obj 2138 664 dac~;
#X obj 1115 699 r num225;
#X msg 1115 725 \$1 1000;
#X obj 1115 751 osc~;
#X obj 1115 777 dac~;
#X obj 1183 699 r num226;
#X msg 1183 725 \$1 1000;
#X obj 1183 751 osc~;
#X obj 1183 777 dac~;
#X obj 1251 699 r num227;
#X msg 1251 725 \$1 1000;
#X obj 1251 751 osc~;
#X obj 1251 777 dac~;
#X obj 1319 699 r num228;
#X msg 1319 725 \$1 1000;
#X obj 1319 751 osc~;
#X obj 1319 777 dac~;
#X obj 1388 699 r num229;
#X msg 1388 725 \$1 1000;
#X obj 1388 751 osc~;
#X obj 1388 777 dac~;
#X obj 1456 699 r num230;
#X msg 1456 725 \$1 1000;
#X obj 1456 751 osc~;
#X obj 1456 777 dac~;
#X obj 1524 699 r num231;
#X msg 1524 725 \$1 1000;
#X obj 1524 751 osc~;
#X obj 1524 777 dac~;
#X obj 1592 699 r num232;
#X msg 1592 725 \$1 1000;
#X obj 1592 751 osc~;
#X obj 1592 777 dac~;
#X obj 1660 699 r num233;
#X msg 1660 725 \$1 1000;
#X obj 1660 751 osc~;
#X obj 1660 777 dac~;
#X obj 1728 699 r num234;
#X msg 1728 725 \$1 1000;
#X obj 1728 751 osc~;
#X obj 1728 777 dac~;
#X obj 1796 699 r num235;
#X msg 1796 725 \$1 1000;
#X obj 1796 751 osc~;
#X obj 1796 777 dac~;
#X obj 1864 699 r num236;
#X msg 1864 725 \$1 1000;
#X obj 1864 751 osc~;
#X obj 1864 777 dac~;
#X obj 1933 699 r num237;
#X msg 1933 725 \$1 1000;
#X obj 1933 751 osc~;
#X obj 1933 777 dac~;
#X obj 2001 699 r num238;
#X msg 2001 725 \$1 1000;
#X obj 2001 751 osc~;
#X obj 2001 777 dac~;
#X obj 2069 699 r num239;
#X msg 2069 725 \$1 1000;
#X obj 2069 751 osc~;
#X obj 2069 777 dac~;
#X obj 2137 699 r num240;
#X msg 2137 725 \$1 1000;
#X obj 2137 751 osc~;
#X obj 2137 777 dac~;
#X obj 1115 813 r num241;
#X msg 1115 839 \$1 1000;
#X obj 1115 865 osc~;
#X obj 1115 891 dac~;
#X obj 1183 813 r num242;
#X msg 1183 839 \$1 1000;
#X obj 1183 865 osc~;
#X obj 1183 891 dac~;
#X obj 1251 813 r num243;
#X msg 1251 839 \$1 1000;
#X obj 1251 865 osc~;
#X obj 1251 891 dac~;
#X obj 1319 813 r num244;
#X msg 1319 839 \$1 1000;
#X obj 1319 865 osc~;
#X obj 1319 891 dac~;
#X obj 1388 813 r num245;
#X msg 1388 839 \$1 1000;
#X obj 1388 865 osc~;
#X obj 1388 891 dac~;
#X obj 1456 813 r num246;
#X msg 1456 839 \$1 1000;
#X obj 1456 865 osc~;
#X obj 1456 891 dac~;
#X obj 1524 813 r num247;
#X msg 1524 839 \$1 1000;
#X obj 1524 865 osc~;
#X obj 1524 891 dac~;
#X obj 1592 813 r num248;
#X msg 1592 839 \$1 1000;
#X obj 1592 865 osc~;
#X obj 1592 891 dac~;
#X obj 1660 813 r num249;
#X msg 1660 839 \$1 1000;
#X obj 1660 865 osc~;
#X obj 1660 891 dac~;
#X obj 1728 813 r num250;
#X msg 1728 839 \$1 1000;
#X obj 1728 865 osc~;
#X obj 1728 891 dac~;
#X obj 1796 813 r num251;
#X msg 1796 839 \$1 1000;
#X obj 1796 865 osc~;
#X obj 1796 891 dac~;
#X obj 1864 813 r num252;
#X msg 1864 839 \$1 1000;
#X obj 1864 865 osc~;
#X obj 1864 891 dac~;
#X obj 1933 813 r num253;
#X msg 1933 839 \$1 1000;
#X obj 1933 865 osc~;
#X obj 1933 891 dac~;
#X obj 2001 813 r num254;
#X msg 2001 839 \$1 1000;
#X obj 2001 865 osc~;
#X obj 2001 891 dac~;
#X obj 2069 813 r num255;
#X msg 2069 839 \$1 1000;
#X obj 2069 865 osc~;
#X obj 2069 891 dac~;
#X obj 2137 813 r num256;
#X msg 2137 839 \$1 1000;
#X obj 2137 865 osc~;
#X obj 2137 891 dac~;
#X obj 24 923 r num257;
#X msg 24 949 \$1 1000;
#X obj 24 975 osc~;
#X obj 24 1001 dac~;
#X obj 92 923 r num258;
#X msg 92 949 \$1 1000;
#X obj 92 975 osc~;
#X obj 92 1001 dac~;
#X obj 160 923 r num259;
#X msg 160 949 \$1 1000;
#X obj 160 975 osc~;
#X obj 160 1001 dac~;
#X obj 228 923 r num260;
#X msg 228 949 \$1 1000;
#X obj 228 975 osc~;
#X obj 228 1001 dac~;
#X obj 297 923 r num261;
#X msg 297 949 \$1 1000;
#X obj 297 975 osc~;
#X obj 297 1001 dac~;
#X obj 365 923 r num262;
#X msg 365 949 \$1 1000;
#X obj 365 975 osc~;
#X obj 365 1001 dac~;
#X obj 433 923 r num263;
#X msg 433 949 \$1 1000;
#X obj 433 975 osc~;
#X obj 433 1001 dac~;
#X obj 501 923 r num264;
#X msg 501 949 \$1 1000;
#X obj 501 975 osc~;
#X obj 501 1001 dac~;
#X obj 569 923 r num265;
#X msg 569 949 \$1 1000;
#X obj 569 975 osc~;
#X obj 569 1001 dac~;
#X obj 637 923 r num266;
#X msg 637 949 \$1 1000;
#X obj 637 975 osc~;
#X obj 637 1001 dac~;
#X obj 705 923 r num267;
#X msg 705 949 \$1 1000;
#X obj 705 975 osc~;
#X obj 705 1001 dac~;
#X obj 773 923 r num268;
#X msg 773 949 \$1 1000;
#X obj 773 975 osc~;
#X obj 773 1001 dac~;
#X obj 842 923 r num269;
#X msg 842 949 \$1 1000;
#X obj 842 975 osc~;
#X obj 842 1001 dac~;
#X obj 910 923 r num270;
#X msg 910 949 \$1 1000;
#X obj 910 975 osc~;
#X obj 910 1001 dac~;
#X obj 978 923 r num271;
#X msg 978 949 \$1 1000;
#X obj 978 975 osc~;
#X obj 978 1001 dac~;
#X obj 1046 923 r num272;
#X msg 1046 949 \$1 1000;
#X obj 1046 975 osc~;
#X obj 1046 1001 dac~;
#X obj 24 1037 r num273;
#X msg 24 1063 \$1 1000;
#X obj 24 1089 osc~;
#X obj 24 1115 dac~;
#X obj 92 1037 r num274;
#X msg 92 1063 \$1 1000;
#X obj 92 1089 osc~;
#X obj 92 1115 dac~;
#X obj 160 1037 r num275;
#X msg 160 1063 \$1 1000;
#X obj 160 1089 osc~;
#X obj 160 1115 dac~;
#X obj 228 1037 r num276;
#X msg 228 1063 \$1 1000;
#X obj 228 1089 osc~;
#X obj 228 1115 dac~;
#X obj 297 1037 r num277;
#X msg 297 1063 \$1 1000;
#X obj 297 1089 osc~;
#X obj 297 1115 dac~;
#X obj 365 1037 r num278;
#X msg 365 1063 \$1 1000;
#X obj 365 1089 osc~;
#X obj 365 1115 dac~;
#X obj 433 1037 r num279;
#X msg 433 1063 \$1 1000;
#X obj 433 1089 osc~;
#X obj 433 1115 dac~;
#X obj 501 1037 r num280;
#X msg 501 1063 \$1 1000;
#X obj 501 1089 osc~;
#X obj 501 1115 dac~;
#X obj 569 1037 r num281;
#X msg 569 1063 \$1 1000;
#X obj 569 1089 osc~;
#X obj 569 1115 dac~;
#X obj 637 1037 r num282;
#X msg 637 1063 \$1 1000;
#X obj 637 1089 osc~;
#X obj 637 1115 dac~;
#X obj 705 1037 r num283;
#X msg 705 1063 \$1 1000;
#X obj 705 1089 osc~;
#X obj 705 1115 dac~;
#X obj 773 1037 r num284;
#X msg 773 1063 \$1 1000;
#X obj 773 1089 osc~;
#X obj 773 1115 dac~;
#X obj 842 1037 r num285;
#X msg 842 1063 \$1 1000;
#X obj 842 1089 osc~;
#X obj 842 1115 dac~;
#X obj 910 1037 r num286;
#X msg 910 1063 \$1 1000;
#X obj 910 1089 osc~;
#X obj 910 1115 dac~;
#X obj 978 1037 r num287;
#X msg 978 1063 \$1 1000;
#X obj 978 1089 osc~;
#X obj 978 1115 dac~;
#X obj 1046 1037 r num288;
#X msg 1046 1063 \$1 1000;
#X obj 1046 1089 osc~;
#X obj 1046 1115 dac~;
#X obj 1114 923 r num289;
#X msg 1114 949 \$1 1000;
#X obj 1114 975 osc~;
#X obj 1114 1001 dac~;
#X obj 1182 923 r num290;
#X msg 1182 949 \$1 1000;
#X obj 1182 975 osc~;
#X obj 1182 1001 dac~;
#X obj 1250 923 r num291;
#X msg 1250 949 \$1 1000;
#X obj 1250 975 osc~;
#X obj 1250 1001 dac~;
#X obj 1318 923 r num292;
#X msg 1318 949 \$1 1000;
#X obj 1318 975 osc~;
#X obj 1318 1001 dac~;
#X obj 1387 923 r num293;
#X msg 1387 949 \$1 1000;
#X obj 1387 975 osc~;
#X obj 1387 1001 dac~;
#X obj 1455 923 r num294;
#X msg 1455 949 \$1 1000;
#X obj 1455 975 osc~;
#X obj 1455 1001 dac~;
#X obj 1523 923 r num295;
#X msg 1523 949 \$1 1000;
#X obj 1523 975 osc~;
#X obj 1523 1001 dac~;
#X obj 1591 923 r num296;
#X msg 1591 949 \$1 1000;
#X obj 1591 975 osc~;
#X obj 1591 1001 dac~;
#X obj 1659 923 r num297;
#X msg 1659 949 \$1 1000;
#X obj 1659 975 osc~;
#X obj 1659 1001 dac~;
#X obj 1727 923 r num298;
#X msg 1727 949 \$1 1000;
#X obj 1727 975 osc~;
#X obj 1727 1001 dac~;
#X obj 1795 923 r num299;
#X msg 1795 949 \$1 1000;
#X obj 1795 975 osc~;
#X obj 1795 1001 dac~;
#X obj 1863 923 r num300;
#X msg 1863 949 \$1 1000;
#X obj 1863 975 osc~;
#X obj 1863 1001 dac~;
#X obj 1932 923 r num301;
#X msg 1932 949 \$1 1000;
#X obj 1932 975 osc~;
#X obj 1932 1001 dac~;
#X obj 2000 923 r num302;
#X msg 2000 949 \$1 1000;
#X obj 2000 975 osc~;
#X obj 2000 1001 dac~;
#X obj 2068 923 r num303;
#X msg 2068 949 \$1 1000;
#X obj 2068 975 osc~;
#X obj 2068 1001 dac~;
#X obj 2136 923 r num304;
#X msg 2136 949 \$1 1000;
#X obj 2136 975 osc~;
#X obj 2136 1001 dac~;
#X obj 1114 1037 r num305;
#X msg 1114 1063 \$1 1000;
#X obj 1114 1089 osc~;
#X obj 1114 1115 dac~;
#X obj 1182 1037 r num306;
#X msg 1182 1063 \$1 1000;
#X obj 1182 1089 osc~;
#X obj 1182 1115 dac~;
#X obj 1250 1037 r num307;
#X msg 1250 1063 \$1 1000;
#X obj 1250 1089 osc~;
#X obj 1250 1115 dac~;
#X obj 1318 1037 r num308;
#X msg 1318 1063 \$1 1000;
#X obj 1318 1089 osc~;
#X obj 1318 1115 dac~;
#X obj 1387 1037 r num309;
#X msg 1387 1063 \$1 1000;
#X obj 1387 1089 osc~;
#X obj 1387 1115 dac~;
#X obj 1455 1037 r num310;
#X msg 1455 1063 \$1 1000;
#X obj 1455 1089 osc~;
#X obj 1455 1115 dac~;
#X obj 1523 1037 r num311;
#X msg 1523 1063 \$1 1000;
#X obj 1523 1089 osc~;
#X obj 1523 1115 dac~;
#X obj 1591 1037 r num312;
#X msg 1591 1063 \$1 1000;
#X obj 1591 1089 osc~;
#X obj 1591 1115 dac~;
#X obj 1659 1037 r num313;
#X msg 1659 1063 \$1 1000;
#X obj 1659 1089 osc~;
#X obj 1659 1115 dac~;
#X obj 1727 1037 r num314;
#X msg 1727 1063 \$1 1000;
#X obj 1727 1089 osc~;
#X obj 1727 1115 dac~;
#X obj 1795 1037 r num315;
#X msg 1795 1063 \$1 1000;
#X obj 1795 1089 osc~;
#X obj 1795 1115 dac~;
#X obj 1863 1037 r num316;
#X msg 1863 1063 \$1 1000;
#X obj 1863 1089 osc~;
#X obj 1863 1115 dac~;
#X obj 1932 1037 r num317;
#X msg 1932 1063 \$1 1000;
#X obj 1932 1089 osc~;
#X obj 1932 1115 dac~;
#X obj 2000 1037 r num318;
#X msg 2000 1063 \$1 1000;
#X obj 2000 1089 osc~;
#X obj 2000 1115 dac~;
#X obj 2068 1037 r num319;
#X msg 2068 1063 \$1 1000;
#X obj 2068 1089 osc~;
#X obj 2068 1115 dac~;
#X obj 2136 1037 r num320;
#X msg 2136 1063 \$1 1000;
#X obj 2136 1089 osc~;
#X obj 2136 1115 dac~;
#X connect 0 0 1 0;
#X connect 1 0 2 0;
#X connect 2 0 3 0;
#X connect 2 0 3 1;
#X connect 4 0 5 0;
#X connect 5 0 6 0;
#X connect 6 0 7 0;
#X connect 6 0 7 1;
#X connect 8 0 9 0;
#X connect 9 0 10 0;
#X connect 10 0 11 0;
#X connect 10 0 11 1;
#X connect 12 0 13 0;
#X connect 13 0 14 0;
#X connect 14 0 15 0;
#X connect 14 0 15 1;
#X connect 16 0 17 0;
#X connect 17 0 18 0;
#X connect 18 0 19 0;
#X connect 18 0 19 1;
#X connect 20 0 21 0;
#X connect 21 0 22 0;
#X connect 22 0 23 0;
#X connect 22 0 23 1;
#X connect 24 0 25 0;
#X connect 25 0 26 0;
#X connect 26 0 27 0;
#X connect 26 0 27 1;
#X connect 28 0 29 0;
#X connect 29 0 30 0;
#X connect 30 0 31 0;
#X connect 30 0 31 1;
#X connect 32 0 33 0;
#X connect 33 0 34 0;
#X connect 34 0 35 0;
#X connect 34 0 35 1;
#X connect 36 0 37 0;
#X connect 37 0 38 0;
#X connect 38 0 39 0;
#X connect 38 0 39 1;
#X connect 40 0 41 0;
#X connect 41 0 42 0;
#X connect 42 0 43 0;
#X connect 42 0 43 1;
#X connect 44 0 45 0;
#X connect 45 0 46 0;
#X connect 46 0 47 0;
#X connect 46 0 47 1;
#X connect 48 0 49 0;
#X connect 49 0 50 0;
#X connect 50 0 51 0;
#X connect 50 0 51 1;
#X connect 52 0 53 0;
#X connect 53 0 54 0;
#X connect 54 0 55 0;
#X connect 54 0 55 1;
#X connect 56 0 57 0;
#X connect 57 0 58 0;
#X connect 58 0 59 0;
#X connect 58 0 59 1;
#X connect 60 0 61 0;
#X connect 61 0 62 0;
#X connect 62 0 63 0;
#X connect 62 0 63 1;
#X connect 64 0 65 0;
#X connect 65 0 66 0;
#X connect 66 0 67 0;
#X connect 66 0 67 1;
#X connect 68 0 69 0;
#X connect 69 0 70 0;
#X connect 70 0 71 0;
#X connect 70 0 71 1;
#X connect 72 0 73 0;
#X connect 73 0 74 0;
#X connect 74 0 75 0;
#X connect 74 0 75 1;
#X connect 76 0 77 0;
#X connect 77 0 78 0;
#X connect 78 0 79 0;
#X connect 78 0 79 1;
#X connect 80 0 81 0;
#X connect 81 0 82 0;
#X connect 82 0 83 0;
#X connect 82 0 83 1;
#X connect 84 0 85 0;
#X connect 85 0 86 0;
#X connect 86 0 87 0;
#X connect 86 0 87 1;
#X connect 88 0 89 0;
#X connect 89 0 90 0;
#X connect 90 0 91 0;
#X connect 90 0 91 1;
#X connect 92 0 93 0;
#X connect 93 0 94 0;
#X connect 94 0 95 0;
#X connect 94 0 95 1;
#X connect 96 0 97 0;
#X connect 97 0 98 0;
#X connect 98 0 99 0;
#X connect 98 0 99 1;
#X connect 100 0 101 0;
#X connect 101 0 102 0;
#X connect 102 0 103 0;
#X connect 102 0 103 1;
#X connect 104 0 105 0;
#X connect 105 0 106 0;
#X connect 106 0 107 0;
#X connect 106 0 107 1;
#X connect 108 0 109 0;
#X connect 109 0 110 0;
#X connect 110 0 111 0;
#X connect 110 0 111 1;
#X connect 112 0 113 0;
#X connect 113 0 114 0;
#X connect 114 0 115 0;
#X connect 114 0 115 1;
#X connect 116 0 117 0;
#X connect 117 0 118 0;
#X connect 118 0 119 0;
#X connect 118 0 119 1;
#X connect 120 0 121 0;
#X connect 121 0 122 0;
#X connect 122 0 123 0;
#X connect 122 0 123 1;
#X connect 124 0 125 0;
#X connect 125 0 126 0;
#X connect 126 0 127 0;
#X connect 126 0 127 1;
#X connect 128 0 129 0;
#X connect 129 0 130 0;
#X connect 130 0 131 0;
#X connect 130 0 131 1;
#X connect 132 0 133 0;
#X connect 133 0 134 0;
#X connect 134 0 135 0;
#X connect 134 0 135 1;
#X connect 136 0 137 0;
#X connect 137 0 138 0;
#X connect 138 0 139 0;
#X connect 138 0 139 1;
#X connect 140 0 141 0;
#X connect 141 0 142 0;
#X connect 142 0 143 0;
#X connect 142 0 143 1;
#X connect 144 0 145 0;
#X connect 145 0 146 0;
#X connect 146 0 147 0;
#X connect 146 0 147 1;
#X connect 148 0 149 0;
#X connect 149 0 150 0;
#X connect 150 0 151 0;
#X connect 150 0 151 1;
#X connect 152 0 153 0;
#X connect 153 0 154 0;
#X connect 154 0 155 0;
#X connect 154 0 155 1;
#X connect 156 0 157 0;
#X connect 157 0 158 0;
#X connect 158 0 159 0;
#X connect 158 0 159 1;
#X connect 160 0 161 0;
#X connect 161 0 162 0;
#X connect 162 0 163 0;
#X connect 162 0 163 1;
#X connect 164 0 165 0;
#X connect 165 0 166 0;
#X connect 166 0 167 0;
#X connect 166 0 167 1;
#X connect 168 0 169 0;
#X connect 169 0 170 0;
#X connect 170 0 171 0;
#X connect 170 0 171 1;
#X connect 172 0 173 0;
#X connect 173 0 174 0;
#X connect 174 0 175 0;
#X connect 174 0 175 1;
#X connect 176 0 177 0;
#X connect 177 0 178 0;
#X connect 178 0 179 0;
#X connect 178 0 179 1;
#X connect 180 0 181 0;
#X connect 181 0 182 0;
#X connect 182 0 183 0;
#X connect 182 0 183 1;
#X connect 184 0 185 0;
#X connect 185 0 186 0;
#X connect 186 0 187 0;
#X connect 186 0 187 1;
#X connect 188 0 189 0;
#X connect 189 0 190 0;
#X connect 190 0 191 0;
#X connect 190 0 191 1;
#X connect 192 0 193 0;
#X connect 193 0 194 0;
#X connect 194 0 195 0;
#X connect 194 0 195 1;
#X connect 196 0 197 0;
#X connect 197 0 198 0;
#X connect 198 0 199 0;
#X connect 198 0 199 1;
#X connect 200 0 201 0;
#X connect 201 0 202 0;
#X connect 202 0 203 0;
#X connect 202 0 203 1;
#X connect 204 0 205 0;
#X connect 205 0 206 0;
#X connect 206 0 207 0;
#X connect 206 0 207 1;
#X connect 208 0 209 0;
#X connect 209 0 210 0;
#X connect 210 0 211 0;
#X connect 210 0 211 1;
#X connect 212 0 213 0;
#X connect 213 0 214 0;
#X connect 214 0 215 0;
#X connect 214 0 215 1;
#X connect 216 0 217 0;
#X connect 217 0 218 0;
#X connect 218 0 219 0;
#X connect 218 0 219 1;
#X connect 220 0 221 0;
#X connect 221 0 222 0;
#X connect 222 0 223 0;
#X connect 222 0 223 1;
#X connect 224 0 225 0;
#X connect 225 0 226 0;
#X connect 226 0 227 0;
#X connect 226 0 227 1;
#X connect 228 0 229 0;
#X connect 229 0 230 0;
#X connect 230 0 231 0;
#X connect 230 0 231 1;
#X connect 232 0 233 0;
#X connect 233 0 234 0;
#X connect 234 0 235 0;
#X connect 234 0 235 1;
#X connect 236 0 237 0;
#X connect 237 0 238 0;
#X connect 238 0 239 0;
#X connect 238 0 239 1;
#X connect 240 0 241 0;
#X connect 241 0 242 0;
#X connect 242 0 243 0;
#X connect 242 0 243 1;
#X connect 244 0 245 0;
#X connect 245 0 246 0;
#X connect 246 0 247 0;
#X connect 246 0 247 1;
#X connect 248 0 249 0;
#X connect 249 0 250 0;
#X connect 250 0 251 0;
#X connect 250 0 251 1;
#X connect 252 0 253 0;
#X connect 253 0 254 0;
#X connect 254 0 255 0;
#X connect 254 0 255 1;
#X connect 256 0 257 0;
#X connect 257 0 258 0;
#X connect 258 0 259 0;
#X connect 258 0 259 1;
#X connect 260 0 261 0;
#X connect 261 0 262 0;
#X connect 262 0 263 0;
#X connect 262 0 263 1;
#X connect 264 0 265 0;
#X connect 265 0 266 0;
#X connect 266 0 267 0;
#X connect 266 0 267 1;
#X connect 268 0 269 0;
#X connect 269 0 270 0;
#X connect 270 0 271 0;
#X connect 270 0 271 1;
#X connect 272 0 273 0;
#X connect 273 0 274 0;
#X connect 274 0 275 0;
#X connect 274 0 275 1;
#X connect 276 0 277 0;
#X connect 277 0 278 0;
#X connect 278 0 279 0;
#X connect 278 0 279 1;
#X connect 280 0 281 0;
#X connect 281 0 282 0;
#X connect 282 0 283 0;
#X connect 282 0 283 1;
#X connect 284 0 285 0;
#X connect 285 0 286 0;
#X connect 286 0 287 0;
#X connect 286 0 287 1;
#X connect 288 0 289 0;
#X connect 289 0 290 0;
#X connect 290 0 291 0;
#X connect 290 0 291 1;
#X connect 292 0 293 0;
#X connect 293 0 294 0;
#X connect 294 0 295 0;
#X connect 294 0 295 1;
#X connect 296 0 297 0;
#X connect 297 0 298 0;
#X connect 298 0 299 0;
#X connect 298 0 299 1;
#X connect 300 0 301 0;
#X connect 301 0 302 0;
#X connect 302 0 303 0;
#X connect 302 0 303 1;
#X connect 304 0 305 0;
#X connect 305 0 306 0;
#X connect 306 0 307 0;
#X connect 306 0 307 1;
#X connect 308 0 309 0;
#X connect 309 0 310 0;
#X connect 310 0 311 0;
#X connect 310 0 311 1;
#X connect 312 0 313 0;
#X connect 313 0 314 0;
#X connect 314 0 315 0;
#X connect 314 0 315 1;
#X connect 316 0 317 0;
#X connect 317 0 318 0;
#X connect 318 0 319 0;
#X connect 318 0 319 1;
#X connect 320 0 321 0;
#X connect 321 0 322 0;
#X connect 322 0 323 0;
#X connect 322 0 323 1;
#X connect 324 0 325 0;
#X connect 325 0 326 0;
#X connect 326 0 327 0;
#X connect 326 0 327 1;
#X connect 328 0 329 0;
#X connect 329 0 330 0;
#X connect 330 0 331 0;
#X connect 330 0 331 1;
#X connect 332 0 333 0;
#X connect 333 0 334 0;
#X connect 334 0 335 0;
#X connect 334 0 335 1;
#X connect 336 0 337 0;
#X connect 337 0 338 0;
#X connect 338 0 339 0;
#X connect 338 0 339 1;
#X connect 340 0 341 0;
#X connect 341 0 342 0;
#X connect 342 0 343 0;
#X connect 342 0 343 1;
#X connect 344 0 345 0;
#X connect 345 0 346 0;
#X connect 346 0 347 0;
#X connect 346 0 347 1;
#X connect 348 0 349 0;
#X connect 349 0 350 0;
#X connect 350 0 351 0;
#X connect 350 0 351 1;
#X connect 352 0 353 0;
#X connect 353 0 354 0;
#X connect 354 0 355 0;
#X connect 354 0 355 1;
#X connect 356 0 357 0;
#X connect 357 0 358 0;
#X connect 358 0 359 0;
#X connect 358 0 359 1;
#X connect 360 0 361 0;
#X connect 361 0 362 0;
#X connect 362 0 363 0;
#X connect 362 0 363 1;
#X connect 364 0 365 0;
#X connect 365 0 366 0;
#X connect 366 0 367 0;
#X connect 366 0 367 1;
#X connect 368 0 369 0;
#X connect 369 0 370 0;
#X connect 370 0 371 0;
#X connect 370 0 371 1;
#X connect 372 0 373 0;
#X connect 373 0 374 0;
#X connect 374 0 375 0;
#X connect 374 0 375 1;
#X connect 376 0 377 0;
#X connect 377 0 378 0;
#X connect 378 0 379 0;
#X connect 378 0 379 1;
#X connect 380 0 381 0;
#X connect 381 0 382 0;
#X connect 382 0 383 0;
#X connect 382 0 383 1;
#X connect 384 0 385 0;
#X connect 385 0 386 0;
#X connect 386 0 387 0;
#X connect 386 0 387 1;
#X connect 388 0 389 0;
#X connect 389 0 390 0;
#X connect 390 0 391 0;
#X connect 390 0 391 1;
#X connect 392 0 393 0;
#X connect 393 0 394 0;
#X connect 394 0 395 0;
#X connect 394 0 395 1;
#X connect 396 0 397 0;
#X connect 397 0 398 0;
#X connect 398 0 399 0;
#X connect 398 0 399 1;
#X connect 400 0 401 0;
#X connect 401 0 402 0;
#X connect 402 0 403 0;
#X connect 402 0 403 1;
#X connect 404 0 405 0;
#X connect 405 0 406 0;
#X connect 406 0 407 0;
#X connect 406 0 407 1;
#X connect 408 0 409 0;
#X connect 409 0 410 0;
#X connect 410 0 411 0;
#X connect 410 0 411 1;
#X connect 412 0 413 0;
#X connect 413 0 414 0;
#X connect 414 0 415 0;
#X connect 414 0 415 1;
#X connect 416 0 417 0;
#X connect 417 0 418 0;
#X connect 418 0 419 0;
#X connect 418 0 419 1;
#X connect 420 0 421 0;
#X connect 421 0 422 0;
#X connect 422 0 423 0;
#X connect 422 0 423 1;
#X connect 424 0 425 0;
#X connect 425 0 426 0;
#X connect 426 0 427 0;
#X connect 426 0 427 1;
#X connect 428 0 429 0;
#X connect 429 0 430 0;
#X connect 430 0 431 0;
#X connect 430 0 431 1;
#X connect 432 0 433 0;
#X connect 433 0 434 0;
#X connect 434 0 435 0;
#X connect 434 0 435 1;
#X connect 436 0 437 0;
#X connect 437 0 438 0;
#X connect 438 0 439 0;
#X connect 438 0 439 1;
#X connect 440 0 441 0;
#X connect 441 0 442 0;
#X connect 442 0 443 0;
#X connect 442 0 443 1;
#X connect 444 0 445 0;
#X connect 445 0 446 0;
#X connect 446 0 447 0;
#X connect 446 0 447 1;
#X connect 448 0 449 0;
#X connect 449 0 450 0;
#X connect 450 0 451 0;
#X connect 450 0 451 1;
#X connect 452 0 453 0;
#X connect 453 0 454 0;
#X connect 454 0 455 0;
#X connect 454 0 455 1;
#X connect 456 0 457 0;
#X connect 457 0 458 0;
#X connect 458 0 459 0;
#X connect 458 0 459 1;
#X connect 460 0 461 0;
#X connect 461 0 462 0;
#X connect 462 0 463 0;
#X connect 462 0 463 1;
#X connect 464 0 465 0;
#X connect 465 0 466 0;
#X connect 466 0 467 0;
#X connect 466 0 467 1;
#X connect 468 0 469 0;
#X connect 469 0 470 0;
#X connect 470 0 471 0;
#X connect 470 0 471 1;
#X connect 472 0 473 0;
#X connect 473 0 474 0;
#X connect 474 0 475 0;
#X connect 474 0 475 1;
#X connect 476 0 477 0;
#X connect 477 0 478 0;
#X connect 478 0 479 0;
#X connect 478 0 479 1;
#X connect 480 0 481 0;
#X connect 481 0 482 0;
#X connect 482 0 483 0;
#X connect 482 0 483 1;
#X connect 484 0 485 0;
#X connect 485 0 486 0;
#X connect 486 0 487 0;
#X connect 486 0 487 1;
#X connect 488 0 489 0;
#X connect 489 0 490 0;
#X connect 490 0 491 0;
#X connect 490 0 491 1;
#X connect 492 0 493 0;
#X connect 493 0 494 0;
#X connect 494 0 495 0;
#X connect 494 0 495 1;
#X connect 496 0 497 0;
#X connect 497 0 498 0;
#X connect 498 0 499 0;
#X connect 498 0 499 1;
#X connect 500 0 501 0;
#X connect 501 0 502 0;
#X connect 502 0 503 0;
#X connect 502 0 503 1;
#X connect 504 0 505 0;
#X connect 505 0 506 0;
#X connect 506 0 507 0;
#X connect 506 0 507 1;
#X connect 508 0 509 0;
#X connect 509 0 510 0;
#X connect 510 0 511 0;
#X connect 510 0 511 1;
#X connect 512 0 513 0;
#X connect 513 0 514 0;
#X connect 514 0 515 0;
#X connect 514 0 515 1;
#X connect 516 0 517 0;
#X connect 517 0 518 0;
#X connect 518 0 519 0;
#X connect 518 0 519 1;
#X connect 520 0 521 0;
#X connect 521 0 522 0;
#X connect 522 0 523 0;
#X connect 522 0 523 1;
#X connect 524 0 525 0;
#X connect 525 0 526 0;
#X connect 526 0 527 0;
#X connect 526 0 527 1;
#X connect 528 0 529 0;
#X connect 529 0 530 0;
#X connect 530 0 531 0;
#X connect 530 0 531 1;
#X connect 532 0 533 0;
#X connect 533 0 534 0;
#X connect 534 0 535 0;
#X connect 534 0 535 1;
#X connect 536 0 537 0;
#X connect 537 0 538 0;
#X connect 538 0 539 0;
#X connect 538 0 539 1;
#X connect 540 0 541 0;
#X connect 541 0 542 0;
#X connect 542 0 543 0;
#X connect 542 0 543 1;
#X connect 544 0 545 0;
#X connect 545 0 546 0;
#X connect 546 0 547 0;
#X connect 546 0 547 1;
#X connect 548 0 549 0;
#X connect 549 0 550 0;
#X connect 550 0 551 0;
#X connect 550 0 551 1;
#X connect 552 0 553 0;
#X connect 553 0 554 0;
#X connect 554 0 555 0;
#X connect 554 0 555 1;
#X connect 556 0 557 0;
#X connect 557 0 558 0;
#X connect 558 0 559 0;
#X connect 558 0 559 1;
#X connect 560 0 561 0;
#X connect 561 0 562 0;
#X connect 562 0 563 0;
#X connect 562 0 563 1;
#X connect 564 0 565 0;
#X connect 565 0 566 0;
#X connect 566 0 567 0;
#X connect 566 0 567 1;
#X connect 568 0 569 0;
#X connect 569 0 570 0;
#X connect 570 0 571 0;
#X connect 570 0 571 1;
#X connect 572 0 573 0;
#X connect 573 0 574 0;
#X connect 574 0 575 0;
#X connect 574 0 575 1;
#X connect 576 0 577 0;
#X connect 577 0 578 0;
#X connect 578 0 579 0;
#X connect 578 0 579 1;
#X connect 580 0 581 0;
#X connect 581 0 582 0;
#X connect 582 0 583 0;
#X connect 582 0 583 1;
#X connect 584 0 585 0;
#X connect 585 0 586 0;
#X connect 586 0 587 0;
#X connect 586 0 587 1;
#X connect 588 0 589 0;
#X connect 589 0 590 0;
#X connect 590 0 591 0;
#X connect 590 0 591 1;
#X connect 592 0 593 0;
#X connect 593 0 594 0;
#X connect 594 0 595 0;
#X connect 594 0 595 1;
#X connect 596 0 597 0;
#X connect 597 0 598 0;
#X connect 598 0 599 0;
#X connect 598 0 599 1;
#X connect 600 0 601 0;
#X connect 601 0 602 0;
#X connect 602 0 603 0;
#X connect 602 0 603 1;
#X connect 604 0 605 0;
#X connect 605 0 606 0;
#X connect 606 0 607 0;
#X connect 606 0 607 1;
#X connect 608 0 609 0;
#X connect 609 0 610 0;
#X connect 610 0 611 0;
#X connect 610 0 611 1;
#X connect 612 0 613 0;
#X connect 613 0 614 0;
#X connect 614 0 615 0;
#X connect 614 0 615 1;
#X connect 616 0 617 0;
#X connect 617 0 618 0;
#X connect 618 0 619 0;
#X connect 618 0 619 1;
#X connect 620 0 621 0;
#X connect 621 0 622 0;
#X connect 622 0 623 0;
#X connect 622 0 623 1;
#X connect 624 0 625 0;
#X connect 625 0 626 0;
#X connect 626 0 627 0;
#X connect 626 0 627 1;
#X connect 628 0 629 0;
#X connect 629 0 630 0;
#X connect 630 0 631 0;
#X connect 630 0 631 1;
#X connect 632 0 633 0;
#X connect 633 0 634 0;
#X connect 634 0 635 0;
#X connect 634 0 635 1;
#X connect 636 0 637 0;
#X connect 637 0 638 0;
#X connect 638 0 639 0;
#X connect 638 0 639 1;
#X connect 640 0 641 0;
#X connect 641 0 642 0;
#X connect 642 0 643 0;
#X connect 642 0 643 1;
#X connect 644 0 645 0;
#X connect 645 0 646 0;
#X connect 646 0 647 0;
#X connect 646 0 647 1;
#X connect 648 0 649 0;
#X connect 649 0 650 0;
#X connect 650 0 651 0;
#X connect 650 0 651 1;
#X connect 652 0 653 0;
#X connect 653 0 654 0;
#X connect 654 0 655 0;
#X connect 654 0 655 1;
#X connect 656 0 657 0;
#X connect 657 0 658 0;
#X connect 658 0 659 0;
#X connect 658 0 659 1;
#X connect 660 0 661 0;
#X connect 661 0 662 0;
#X connect 662 0 663 0;
#X connect 662 0 663 1;
#X connect 664 0 665 0;
#X connect 665 0 666 0;
#X connect 666 0 667 0;
#X connect 666 0 667 1;
#X connect 668 0 669 0;
#X connect 669 0 670 0;
#X connect 670 0 671 0;
#X connect 670 0 671 1;
#X connect 672 0 673 0;
#X connect 673 0 674 0;
#X connect 674 0 675 0;
#X connect 674 0 675 1;
#X connect 676 0 677 0;
#X connect 677 0 678 0;
#X connect 678 0 679 0;
#X connect 678 0 679 1;
#X connect 680 0 681 0;
#X connect 681 0 682 0;
#X connect 682 0 683 0;
#X connect 682 0 683 1;
#X connect 684 0 685 0;
#X connect 685 0 686 0;
#X connect 686 0 687 0;
#X connect 686 0 687 1;
#X connect 688 0 689 0;
#X connect 689 0 690 0;
#X connect 690 0 691 0;
#X connect 690 0 691 1;
#X connect 692 0 693 0;
#X connect 693 0 694 0;
#X connect 694 0 695 0;
#X connect 694 0 695 1;
#X connect 696 0 697 0;
#X connect 697 0 698 0;
#X connect 698 0 699 0;
#X connect 698 0 699 1;
#X connect 700 0 701 0;
#X connect 701 0 702 0;
#X connect 702 0 703 0;
#X connect 702 0 703 1;
#X connect 704 0 705 0;
#X connect 705 0 706 0;
#X connect 706 0 707 0;
#X connect 706 0 707 1;
#X connect 708 0 709 0;
#X connect 709 0 710 0;
#X connect 710 0 711 0;
#X connect 710 0 711 1;
#X connect 712 0 713 0;
#X connect 713 0 714 0;
#X connect 714 0 715 0;
#X connect 714 0 715 1;
#X connect 716 0 717 0;
#X connect 717 0 718 0;
#X connect 718 0 719 0;
#X connect 718 0 719 1;
#X connect 720 0 721 0;
#X connect 721 0 722 0;
#X connect 722 0 723 0;
#X connect 722 0 723 1;
#X connect 724 0 725 0;
#X connect 725 0 726 0;
#X connect 726 0 727 0;
#X connect 726 0 727 1;
#X connect 728 0 729 0;
#X connect 729 0 730 0;
#X connect 730 0 731 0;
#X connect 730 0 731 1;
#X connect 732 0 733 0;
#X connect 733 0 734 0;
#X connect 734 0 735 0;
#X connect 734 0 735 1;
#X connect 736 0 737 0;
#X connect 737 0 738 0;
#X connect 738 0 739 0;
#X connect 738 0 739 1;
#X connect 740 0 741 0;
#X connect 741 0 742 0;
#X connect 742 0 743 0;
#X connect 742 0 743 1;
#X connect 744 0 745 0;
#X connect 745 0 746 0;
#X connect 746 0 747 0;
#X connect 746 0 747 1;
#X connect 748 0 749 0;
#X connect 749 0 750 0;
#X connect 750 0 751 0;
#X connect 750 0 751 1;
#X connect 752 0 753 0;
#X connect 753 0 754 0;
#X connect 754 0 755 0;
#X connect 754 0 755 1;
#X connect 756 0 757 0;
#X connect 757 0 758 0;
#X connect 758 0 759 0;
#X connect 758 0 759 1;
#X connect 760 0 761 0;
#X connect 761 0 762 0;
#X connect 762 0 763 0;
#X connect 762 0 763 1;
#X connect 764 0 765 0;
#X connect 765 0 766 0;
#X connect 766 0 767 0;
#X connect 766 0 767 1;
#X connect 768 0 769 0;
#X connect 769 0 770 0;
#X connect 770 0 771 0;
#X connect 770 0 771 1;
#X connect 772 0 773 0;
#X connect 773 0 774 0;
#X connect 774 0 775 0;
#X connect 774 0 775 1;
#X connect 776 0 777 0;
#X connect 777 0 778 0;
#X connect 778 0 779 0;
#X connect 778 0 779 1;
#X connect 780 0 781 0;
#X connect 781 0 782 0;
#X connect 782 0 783 0;
#X connect 782 0 783 1;
#X connect 784 0 785 0;
#X connect 785 0 786 0;
#X connect 786 0 787 0;
#X connect 786 0 787 1;
#X connect 788 0 789 0;
#X connect 789 0 790 0;
#X connect 790 0 791 0;
#X connect 790 0 791 1;
#X connect 792 0 793 0;
#X connect 793 0 794 0;
#X connect 794 0 795 0;
#X connect 794 0 795 1;
#X connect 796 0 797 0;
#X connect 797 0 798 0;
#X connect 798 0 799 0;
#X connect 798 0 799 1;
#X connect 800 0 801 0;
#X connect 801 0 802 0;
#X connect 802 0 803 0;
#X connect 802 0 803 1;
#X connect 804 0 805 0;
#X connect 805 0 806 0;
#X connect 806 0 807 0;
#X connect 806 0 807 1;
#X connect 808 0 809 0;
#X connect 809 0 810 0;
#X connect 810 0 811 0;
#X connect 810 0 811 1;
#X connect 812 0 813 0;
#X connect 813 0 814 0;
#X connect 814 0 815 0;
#X connect 814 0 815 1;
#X connect 816 0 817 0;
#X connect 817 0 818 0;
#X connect 818 0 819 0;
#X connect 818 0 819 1;
#X connect 820 0 821 0;
#X connect 821 0 822 0;
#X connect 822 0 823 0;
#X connect 822 0 823 1;
#X connect 824 0 825 0;
#X connect 825 0 826 0;
#X connect 826 0 827 0;
#X connect 826 0 827 1;
#X connect 828 0 829 0;
#X connect 829 0 830 0;
#X connect 830 0 831 0;
#X connect 830 0 831 1;
#X connect 832 0 833 0;
#X connect 833 0 834 0;
#X connect 834 0 835 0;
#X connect 834 0 835 1;
#X connect 836 0 837 0;
#X connect 837 0 838 0;
#X connect 838 0 839 0;
#X connect 838 0 839 1;
#X connect 840 0 841 0;
#X connect 841 0 842 0;
#X connect 842 0 843 0;
#X connect 842 0 843 1;
#X connect 844 0 845 0;
#X connect 845 0 846 0;
#X connect 846 0 847 0;
#X connect 846 0 847 1;
#X connect 848 0 849 0;
#X connect 849 0 850 0;
#X connect 850 0 851 0;
#X connect 850 0 851 1;
#X connect 852 0 853 0;
#X connect 853 0 854 0;
#X connect 854 0 855 0;
#X connect 854 0 855 1;
#X connect 856 0 857 0;
#X connect 857 0 858 0;
#X connect 858 0 859 0;
#X connect 858 0 859 1;
#X connect 860 0 861 0;
#X connect 861 0 862 0;
#X connect 862 0 863 0;
#X connect 862 0 863 1;
#X connect 864 0 865 0;
#X connect 865 0 866 0;
#X connect 866 0 867 0;
#X connect 866 0 867 1;
#X connect 868 0 869 0;
#X connect 869 0 870 0;
#X connect 870 0 871 0;
#X connect 870 0 871 1;
#X connect 872 0 873 0;
#X connect 873 0 874 0;
#X connect 874 0 875 0;
#X connect 874 0 875 1;
#X connect 876 0 877 0;
#X connect 877 0 878 0;
#X connect 878 0 879 0;
#X connect 878 0 879 1;
#X connect 880 0 881 0;
#X connect 881 0 882 0;
#X connect 882 0 883 0;
#X connect 882 0 883 1;
#X connect 884 0 885 0;
#X connect 885 0 886 0;
#X connect 886 0 887 0;
#X connect 886 0 887 1;
#X connect 888 0 889 0;
#X connect 889 0 890 0;
#X connect 890 0 891 0;
#X connect 890 0 891 1;
#X connect 892 0 893 0;
#X connect 893 0 894 0;
#X connect 894 0 895 0;
#X connect 894 0 895 1;
#X connect 896 0 897 0;
#X connect 897 0 898 0;
#X connect 898 0 899 0;
#X connect 898 0 899 1;
#X connect 900 0 901 0;
#X connect 901 0 902 0;
#X connect 902 0 903 0;
#X connect 902 0 903 1;
#X connect 904 0 905 0;
#X connect 905 0 906 0;
#X connect 906 0 907 0;
#X connect 906 0 907 1;
#X connect 908 0 909 0;
#X connect 909 0 910 0;
#X connect 910 0 911 0;
#X connect 910 0 911 1;
#X connect 912 0 913 0;
#X connect 913 0 914 0;
#X connect 914 0 915 0;
#X connect 914 0 915 1;
#X connect 916 0 917 0;
#X connect 917 0 918 0;
#X connect 918 0 919 0;
#X connect 918 0 919 1;
#X connect 920 0 921 0;
#X connect 921 0 922 0;
#X connect 922 0 923 0;
#X connect 922 0 923 1;
#X connect 924 0 925 0;
#X connect 925 0 926 0;
#X connect 926 0 927 0;
#X connect 926 0 927 1;
#X connect 928 0 929 0;
#X connect 929 0 930 0;
#X connect 930 0 931 0;
#X connect 930 0 931 1;
#X connect 932 0 933 0;
#X connect 933 0 934 0;
#X connect 934 0 935 0;
#X connect 934 0 935 1;
#X connect 936 0 937 0;
#X connect 937 0 938 0;
#X connect 938 0 939 0;
#X connect 938 0 939 1;
#X connect 940 0 941 0;
#X connect 941 0 942 0;
#X connect 942 0 943 0;
#X connect 942 0 943 1;
#X connect 944 0 945 0;
#X connect 945 0 946 0;
#X connect 946 0 947 0;
#X connect 946 0 947 1;
#X connect 948 0 949 0;
#X connect 949 0 950 0;
#X connect 950 0 951 0;
#X connect 950 0 951 1;
#X connect 952 0 953 0;
#X connect 953 0 954 0;
#X connect 954 0 955 0;
#X connect 954 0 955 1;
#X connect 956 0 957 0;
#X connect 957 0 958 0;
#X connect 958 0 959 0;
#X connect 958 0 959 1;
#X connect 960 0 961 0;
#X connect 961 0 962 0;
#X connect 962 0 963 0;
#X connect 962 0 963 1;
#X connect 964 0 965 0;
#X connect 965 0 966 0;
#X connect 966 0 967 0;
#X connect 966 0 967 1;
#X connect 968 0 969 0;
#X connect 969 0 970 0;
#X connect 970 0 971 0;
#X connect 970 0 971 1;
#X connect 972 0 973 0;
#X connect 973 0 974 0;
#X connect 974 0 975 0;
#X connect 974 0 975 1;
#X connect 976 0 977 0;
#X connect 977 0 978 0;
#X connect 978 0 979 0;
#X connect 978 0 979 1;
#X connect 980 0 981 0;
#X connect 981 0 982 0;
#X connect 982 0 983 0;
#X connect 982 0 983 1;
#X connect 984 0 985 0;
#X connect 985 0 986 0;
#X connect 986 0 987 0;
#X connect 986 0 987 1;
#X connect 988 0 989 0;
#X connect 989 0 990 0;
#X connect 990 0 991 0;
#X connect 990 0 991 1;
#X connect 992 0 993 0;
#X connect 993 0 994 0;
#X connect 994 0 995 0;
#X connect 994 0 995 1;
#X connect 996 0 997 0;
#X connect 997 0 998 0;
#X connect 998 0 999 0;
#X connect 998 0 999 1;
#X connect 1000 0 1001 0;
#X connect 1001 0 1002 0;
#X connect 1002 0 1003 0;
#X connect 1002 0 1003 1;
#X connect 1004 0 1005 0;
#X connect 1005 0 1006 0;
#X connect 1006 0 1007 0;
#X connect 1006 0 1007 1;
#X connect 1008 0 1009 0;
#X connect 1009 0 1010 0;
#X connect 1010 0 1011 0;
#X connect 1010 0 1011 1;
#X connect 1012 0 1013 0;
#X connect 1013 0 1014 0;
#X connect 1014 0 1015 0;
#X connect 1014 0 1015 1;
#X connect 1016 0 1017 0;
#X connect 1017 0 1018 0;
#X connect 1018 0 1019 0;
#X connect 1018 0 1019 1;
#X connect 1020 0 1021 0;
#X connect 1021 0 1022 0;
#X connect 1022 0 1023 0;
#X connect 1022 0 1023 1;
#X connect 1024 0 1025 0;
#X connect 1025 0 1026 0;
#X connect 1026 0 1027 0;
#X connect 1026 0 1027 1;
#X connect 1028 0 1029 0;
#X connect 1029 0 1030 0;
#X connect 1030 0 1031 0;
#X connect 1030 0 1031 1;
#X connect 1032 0 1033 0;
#X connect 1033 0 1034 0;
#X connect 1034 0 1035 0;
#X connect 1034 0 1035 1;
#X connect 1036 0 1037 0;
#X connect 1037 0 1038 0;
#X connect 1038 0 1039 0;
#X connect 1038 0 1039 1;
#X connect 1040 0 1041 0;
#X connect 1041 0 1042 0;
#X connect 1042 0 1043 0;
#X connect 1042 0 1043 1;
#X connect 1044 0 1045 0;
#X connect 1045 0 1046 0;
#X connect 1046 0 1047 0;
#X connect 1046 0 1047 1;
#X connect 1048 0 1049 0;
#X connect 1049 0 1050 0;
#X connect 1050 0 1051 0;
#X connect 1050 0 1051 1;
#X connect 1052 0 1053 0;
#X connect 1053 0 1054 0;
#X connect 1054 0 1055 0;
#X connect 1054 0 1055 1;
#X connect 1056 0 1057 0;
#X connect 1057 0 1058 0;
#X connect 1058 0 1059 0;
#X connect 1058 0 1059 1;
#X connect 1060 0 1061 0;
#X connect 1061 0 1062 0;
#X connect 1062 0 1063 0;
#X connect 1062 0 1063 1;
#X connect 1064 0 1065 0;
#X connect 1065 0 1066 0;
#X connect 1066 0 1067 0;
#X connect 1066 0 1067 1;
#X connect 1068 0 1069 0;
#X connect 1069 0 1070 0;
#X connect 1070 0 1071 0;
#X connect 1070 0 1071 1;
#X connect 1072 0 1073 0;
#X connect 1073 0 1074 0;
#X connect 1074 0 1075 0;
#X connect 1074 0 1075 1;
#X connect 1076 0 1077 0;
#X connect 1077 0 1078 0;
#X connect 1078 0 1079 0;
#X connect 1078 0 1079 1;
#X connect 1080 0 1081 0;
#X connect 1081 0 1082 0;
#X connect 1082 0 1083 0;
#X connect 1082 0 1083 1;
#X connect 1084 0 1085 0;
#X connect 1085 0 1086 0;
#X connect 1086 0 1087 0;
#X connect 1086 0 1087 1;
#X connect 1088 0 1089 0;
#X connect 1089 0 1090 0;
#X connect 1090 0 1091 0;
#X connect 1090 0 1091 1;
#X connect 1092 0 1093 0;
#X connect 1093 0 1094 0;
#X connect 1094 0 1095 0;
#X connect 1094 0 1095 1;
#X connect 1096 0 1097 0;
#X connect 1097 0 1098 0;
#X connect 1098 0 1099 0;
#X connect 1098 0 1099 1;
#X connect 1100 0 1101 0;
#X connect 1101 0 1102 0;
#X connect 1102 0 1103 0;
#X connect 1102 0 1103 1;
#X connect 1104 0 1105 0;
#X connect 1105 0 1106 0;
#X connect 1106 0 1107 0;
#X connect 1106 0 1107 1;
#X connect 1108 0 1109 0;
#X connect 1109 0 1110 0;
#X connect 1110 0 1111 0;
#X connect 1110 0 1111 1;
#X connect 1112 0 1113 0;
#X connect 1113 0 1114 0;
#X connect 1114 0 1115 0;
#X connect 1114 0 1115 1;
#X connect 1116 0 1117 0;
#X connect 1117 0 1118 0;
#X connect 1118 0 1119 0;
#X connect 1118 0 1119 1;
#X connect 1120 0 1121 0;
#X connect 1121 0 1122 0;
#X connect 1122 0 1123 0;
#X connect 1122 0 1123 1;
#X connect 1124 0 1125 0;
#X connect 1125 0 1126 0;
#X connect 1126 0 1127 0;
#X connect 1126 0 1127 1;
#X connect 1128 0 1129 0;
#X connect 1129 0 1130 0;
#X connect 1130 0 1131 0;
#X connect 1130 0 1131 1;
#X connect 1132 0 1133 0;
#X connect 1133 0 1134 0;
#X connect 1134 0 1135 0;
#X connect 1134 0 1135 1;
#X connect 1136 0 1137 0;
#X connect 1137 0 1138 0;
#X connect 1138 0 1139 0;
#X connect 1138 0 1139 1;
#X connect 1140 0 1141 0;
#X connect 1141 0 1142 0;
#X connect 1142 0 1143 0;
#X connect 1142 0 1143 1;
#X connect 1144 0 1145 0;
#X connect 1145 0 1146 0;
#X connect 1146 0 1147 0;
#X connect 1146 0 1147 1;
#X connect 1148 0 1149 0;
#X connect 1149 0 1150 0;
#X connect 1150 0 1151 0;
#X connect 1150 0 1151 1;
#X connect 1152 0 1153 0;
#X connect 1153 0 1154 0;
#X connect 1154 0 1155 0;
#X connect 1154 0 1155 1;
#X connect 1156 0 1157 0;
#X connect 1157 0 1158 0;
#X connect 1158 0 1159 0;
#X connect 1158 0 1159 1;
#X connect 1160 0 1161 0;
#X connect 1161 0 1162 0;
#X connect 1162 0 1163 0;
#X connect 1162 0 1163 1;
#X connect 1164 0 1165 0;
#X connect 1165 0 1166 0;
#X connect 1166 0 1167 0;
#X connect 1166 0 1167 1;
#X connect 1168 0 1169 0;
#X connect 1169 0 1170 0;
#X connect 1170 0 1171 0;
#X connect 1170 0 1171 1;
#X connect 1172 0 1173 0;
#X connect 1173 0 1174 0;
#X connect 1174 0 1175 0;
#X connect 1174 0 1175 1;
#X connect 1176 0 1177 0;
#X connect 1177 0 1178 0;
#X connect 1178 0 1179 0;
#X connect 1178 0 1179 1;
#X connect 1180 0 1181 0;
#X connect 1181 0 1182 0;
#X connect 1182 0 1183 0;
#X connect 1182 0 1183 1;
#X connect 1184 0 1185 0;
#X connect 1185 0 1186 0;
#X connect 1186 0 1187 0;
#X connect 1186 0 1187 1;
#X connect 1188 0 1189 0;
#X connect 1189 0 1190 0;
#X connect 1190 0 1191 0;
#X connect 1190 0 1191 1;
#X connect 1192 0 1193 0;
#X connect 1193 0 1194 0;
#X connect 1194 0 1195 0;
#X connect 1194 0 1195 1;
#X connect 1196 0 1197 0;
#X connect 1197 0 1198 0;
#X connect 1198 0 1199 0;
#X connect 1198 0 1199 1;
#X connect 1200 0 1201 0;
#X connect 1201 0 1202 0;
#X connect 1202 0 1203 0;
#X connect 1202 0 1203 1;
#X connect 1204 0 1205 0;
#X connect 1205 0 1206 0;
#X connect 1206 0 1207 0;
#X connect 1206 0 1207 1;
#X connect 1208 0 1209 0;
#X connect 1209 0 1210 0;
#X connect 1210 0 1211 0;
#X connect 1210 0 1211 1;
#X connect 1212 0 1213 0;
#X connect 1213 0 1214 0;
#X connect 1214 0 1215 0;
#X connect 1214 0 1215 1;
#X connect 1216 0 1217 0;
#X connect 1217 0 1218 0;
#X connect 1218 0 1219 0;
#X connect 1218 0 1219 1;
#X connect 1220 0 1221 0;
#X connect 1221 0 1222 0;
#X connect 1222 0 1223 0;
#X connect 1222 0 1223 1;
#X connect 1224 0 1225 0;
#X connect 1225 0 1226 0;
#X connect 1226 0 1227 0;
#X connect 1226 0 1227 1;
#X connect 1228 0 1229 0;
#X connect 1229 0 1230 0;
#X connect 1230 0 1231 0;
#X connect 1230 0 1231 1;
#X connect 1232 0 1233 0;
#X connect 1233 0 1234 0;
#X connect 1234 0 1235 0;
#X connect 1234 0 1235 1;
#X connect 1236 0 1237 0;
#X connect 1237 0 1238 0;
#X connect 1238 0 1239 0;
#X connect 1238 0 1239 1;
#X connect 1240 0 1241 0;
#X connect 1241 0 1242 0;
#X connect 1242 0 1243 0;
#X connect 1242 0 1243 1;
#X connect 1244 0 1245 0;
#X connect 1245 0 1246 0;
#X connect 1246 0 1247 0;
#X connect 1246 0 1247 1;
#X connect 1248 0 1249 0;
#X connect 1249 0 1250 0;
#X connect 1250 0 1251 0;
#X connect 1250 0 1251 1;
#X connect 1252 0 1253 0;
#X connect 1253 0 1254 0;
#X connect 1254 0 1255 0;
#X connect 1254 0 1255 1;
#X connect 1256 0 1257 0;
#X connect 1257 0 1258 0;
#X connect 1258 0 1259 0;
#X connect 1258 0 1259 1;
#X connect 1260 0 1261 0;
#X connect 1261 0 1262 0;
#X connect 1262 0 1263 0;
#X connect 1262 0 1263 1;
#X connect 1264 0 1265 0;
#X connect 1265 0 1266 0;
#X connect 1266 0 1267 0;
#X connect 1266 0 1267 1;
#X connect 1268 0 1269 0;
#X connect 1269 0 1270 0;
#X connect 1270 0 1271 0;
#X connect 1270 0 1271 1;
#X connect 1272 0 1273 0;
#X connect 1273 0 1274 0;
#X connect 1274 0 1275 0;
#X connect 1274 0 1275 1;
#X connect 1276 0 1277 0;
#X connect 1277 0 1278 0;
#X connect 1278 0 1279 0;
#X connect 1278 0 1279 1;
