#N canvas 457 547 762 387 10;
#X obj 127 161 dac~;
#X obj 128 40 loadbang;
#X msg 128 71 220;
#X msg 200 70 \$1 1000;
#X obj 199 40 r somenumber;
#X obj 126 131 osc~;
#X connect 1 0 2 0;
#X connect 2 0 5 0;
#X connect 3 0 5 0;
#X connect 4 0 3 0;
#X connect 5 0 0 0;
#X connect 5 0 0 1;
