#N canvas 361 578 762 387 10;
#X obj 201 146 dac~;
#X obj 128 40 loadbang;
#X msg 128 71 220;
#X msg 200 70 \$1 1000;
#X obj 200 116 osc~;
#X obj 304 147 dac~;
#X msg 303 71 \$1 1000;
#X obj 303 117 osc~;
#X obj 302 41 r num2;
#X obj 199 40 r num1;
#X connect 1 0 2 0;
#X connect 3 0 4 0;
#X connect 4 0 0 0;
#X connect 4 0 0 1;
#X connect 6 0 7 0;
#X connect 7 0 5 0;
#X connect 7 0 5 1;
#X connect 8 0 6 0;
#X connect 9 0 3 0;
